<svg xmlns="http://www.w3.org/2000/svg" viewBox="0 0 378.84 319.21"><title>designer</title><path d="M308.75,318.88c2.63,0,7.23-3.53,9.46-4.71a219.67,219.67,0,0,0,21.12-12.62c12.43-8.46,30.84-21.8,30.92-38.67.05-12.17-10.55-22.29-22.23-23.39s-23.51,3.64-34.63,6.85c-7.68,2.22-19.93,4.86-25.72-2.77s3.29-16.19,7.87-21.94q7.59-9.49,14.72-19.36c12.59-17.39,24.73-35.69,33.1-55.55,4.16-9.88,8.31-21.55,6.29-32.44C343,78.37,303.1,90.34,293.12,96.66s-33.58,21.61-52.54,11.3S234,74.19,235.92,51.54c1.62-19.39-10-36.12-29.95-38.12S163.43,19,153.29,50.27c-15.42,47.61-9.18,67.34-37.41,71.33-9.6,1.36-31.4-19.73-57.2-23.28-11.57-1.59-28.27,1.66-19,22.28C44,130,51.47,138.14,58.16,145.86c8.3,9.58,17,18.83,25,28.6,8.48,10.26,18,21,12.35,35.1-4.47,11.2-16.86,19.71-28.9,14.79-13.29-5.42-25.95-16.28-41.09-15.26C13.73,209.89,4,217.27,1,228.89a38,38,0,0,0,.44,19.27c5,18.29,31.59,52.18,62.19,70.72Z" style="fill:#dde9ff"/><circle cx="245.07" cy="90.34" r="5.82" style="fill:#dde9ff"/><circle cx="163.43" cy="3.33" r="3.33" style="fill:#dde9ff"/><circle cx="44.05" cy="201.37" r="3.33" style="fill:#dde9ff"/><circle cx="376.42" cy="289.28" r="2.41" style="fill:#dde9ff"/><circle cx="42.57" cy="187.12" r="2.15" style="fill:#dde9ff"/><path d="M229.33,160.34v4.16s-19.46,12.3-40.24,10.8-40.32-12-46.11-17.79,16-21.44,16-21.44S194.08,169.15,229.33,160.34Z" style="fill:#2a9e88"/><path d="M248.72,307.93l3.22-2.55-46.56-91.22s-12.52-23.93-49.88-22.72S121.8,215,121.8,215s26.91,3.23,41.57,7.21,27.94,14.52,27.94,14.52Z" style="fill:#2b2a51"/><polygon points="255.18 311.94 251.51 305.72 248.72 307.93 251.94 313.73 255.18 311.94" style="fill:#f7bb7b"/><path d="M280.5,305.41a9.94,9.94,0,0,0-6.32-1c-3.7.58-19,7.57-19,7.57l-3.24,1.79s-.38,3.32.79,3.45C254.35,316.72,280.5,305.41,280.5,305.41Z" style="fill:#105d84"/><path d="M158.91,315.06h21.53s9,1.24,9,4.15c-4.82,0-30.51-.41-30.51-.41Z" style="fill:#105d84"/><polygon points="163.82 310.65 161.9 315.06 158.91 315.06 160.66 310.65 163.82 310.65" style="fill:#f7bb7b"/><path d="M192.47,78.2a26,26,0,0,0-.57-5.8c.32-1.93.83-3.18,1.4-3.18,1,0,1.75,3.54,1.75,7.9s-.79,7.9-1.75,7.9c-.46,0-.87-.8-1.18-2.09A29.5,29.5,0,0,0,192.47,78.2Z" style="fill:none;stroke:#fff;stroke-miterlimit:10"/><path d="M143,99.85c.4.43,5.15-1.27,5.78-1.47,2.22-.7,5-1.6,6.58-3.46,3.31-4-2.78-12.29-3.7-16.55-2.16-10,3.86-21.26,14.62-22.63,11.83-1.5,18.5,9.88,23.52,18.58.85,1.46,11.66,19,11.41,19.18,0,0-2.83,2.16-5.49,2.16-2.07,0-.35,6.41-.13,7.34.63,2.75,2.52,5.82,1.78,8.73a5.93,5.93,0,0,1-7.55,3.84l-22-7.44s-8.55.49-10.68,2.41S143,99.87,143,99.85Z" style="fill:#ffbd80"/><polygon points="268.97 143.72 345.16 319.21 342.28 319.21 263.71 151.08 268.97 143.72" style="fill:#f88665"/><polygon points="295.34 218.78 215.8 218.05 217.6 215.53 293.83 215.53 295.34 218.78" style="fill:#fe6b58"/><polygon points="314.57 67.95 309.02 64.18 229.33 182.34 232.4 185.41 314.57 67.95" style="fill:#ffbf81"/><path d="M242.79,138.39c-.63-1,8.65-10.31,9.67-11.19,1.33-1.14,3.61-3.17,5.55-2.42,2.53,1,3.22,6.48,2.91,8.63s-2.19,4.47-3.73,6a7,7,0,0,1-5.33,1.93c-1.73,0-5.35-.9-6.68.43A32.59,32.59,0,0,1,242.79,138.39Z" style="fill:#ffbd80"/><path d="M229.33,160.34s14.68-10,18.95-8.31a5.59,5.59,0,0,0,.76,1.09l-9.4,13.93s-8-2.55-10.31-2.55Z" style="fill:#ffbd80"/><polygon points="233.32 138.23 231.07 139.72 241.13 154.35 242.79 153.52 233.32 138.23" style="fill:#d63e3e"/><polygon points="135 319.21 133 319.21 113.71 238.9 119.74 238.06 135 319.21" style="fill:#fec083"/><polygon points="76.03 319.21 95.98 235.77 91.32 234.66 74.03 319.21 76.03 319.21" style="fill:#fec083"/><path d="M160.66,310.65h3.16S204.88,243.81,209,217.7s-13-27.93-22.28-30.42-39.45-1.71-42.9-.28-63.4,3-63.4,3l.66,1.45s4.22,25.61,24.17,26.38,70.16,5.44,73.49,4.44C178.11,226.24,160.66,310.65,160.66,310.65Z" style="fill:#3b3962"/><path d="M96,191.44s-.63,7.74,5.16,12.54c2.26,1.87,5.5,3.29,10.13,3.64,16.52,1.22,67.63-2.33,75.55-4a11.29,11.29,0,0,1,10.9,4c5.94,7.44-2,17.86-4.83,24.93-4.74,11.87-8.39,24.19-13,36.14-5.48,14.31-11.26,28.83-19.26,42" style="fill:none;stroke:#28284f;stroke-linecap:round;stroke-linejoin:round"/><path d="M123.58,190.43c.83,11.64-22.44,13.55-22.44,13.55" style="fill:none;stroke:#28284f;stroke-linecap:round;stroke-linejoin:round"/><path d="M270.15,142.08s3.9,4.59,1.49,7.8-9.06,2.78-9.06,2.78Z" style="fill:#fe6a4f"/><path d="M242.79,138.39s-26.27,10.31-41.73,8.32-30.59-8.32-41.57-31.93S121.42,100,121.42,100,88,105.42,73.59,153.08c-3.77,15.08,7.53,38.35,7.53,38.35s57.64.45,62.74-4.43c-2.21-7.54-2.44-23.28-.88-29.49,9.53,8.21,70.27,27.72,102.2-15.74A15,15,0,0,0,242.79,138.39Z" style="fill:#3ec6ac"/><path d="M63.6,131a3.49,3.49,0,0,0-2.84,1.12c-3.32,2.93-3.47,8.14-3.81,12.22a181.86,181.86,0,0,0,.44,33.16c2.31,23.31,9.92,53.33,35.75,60.32a49.89,49.89,0,0,0,12.15,1.65c26.12.54,46.4-10.61,53.41-14.83a3.52,3.52,0,0,0,.89-5.3c-7.65-8.78-22.74-6.82-32.92-5.34-9.76,1.42-25.61,8-33.18-1.36-2.77-3.43-4.32-8.56-5.84-12.67-1.81-4.9-3.4-9.89-4.92-14.89-3.29-10.77-6.22-21.64-9.48-32.42-1.31-4.34-2.65-8.69-4.25-12.93C68.08,137.26,66.51,131.43,63.6,131Z" style="fill:#e55523"/><polygon points="280.41 106.6 278.88 106.6 236.93 169.65 237.56 170.13 280.41 106.6" style="fill:#fff"/><ellipse cx="190.72" cy="78.2" rx="1.75" ry="7.9" style="fill:#dde9ff;stroke:#fff;stroke-miterlimit:10;opacity:0.48"/><ellipse cx="190.72" cy="78.2" rx="1.75" ry="7.9" style="fill:none;stroke:#fff;stroke-miterlimit:10"/><line x1="188.98" y1="78.2" x2="165.26" y2="78.2" style="fill:#dde9ff;stroke:#fff;stroke-linecap:round;stroke-linejoin:round"/><path d="M174.71,53.13a20.91,20.91,0,0,0-8-.4,32.63,32.63,0,0,0-3.87,1,11.7,11.7,0,0,0-3.59,1.66l-.07-.07a6.81,6.81,0,0,1,3.33-2.54,14.18,14.18,0,0,1,4.1-.79,19.23,19.23,0,0,1,8.15,1.1Z" style="fill:#ffbd80"/><path d="M197.38,116.41a3.24,3.24,0,0,1-1.35,2,8.6,8.6,0,0,1-2.2,1,6.8,6.8,0,0,1-2.4.36,5.44,5.44,0,0,1-2.32-.66l0-.1c.8-.13,1.55-.17,2.3-.24s1.48,0,2.22-.14a7.8,7.8,0,0,0,2.12-.66,2.88,2.88,0,0,0,1.51-1.56Z" style="fill:#ffbd80"/><path d="M104.82,101.77a63.15,63.15,0,0,0-8.36,6.55A74.28,74.28,0,0,0,89.15,116c-2.27,2.7-4.19,5.65-6.24,8.49s-4,5.81-6,8.79l-.18-.09a41.49,41.49,0,0,1,4.47-9.8A52.13,52.13,0,0,1,88,114.9a75.72,75.72,0,0,1,7.86-7.34,62.89,62.89,0,0,1,8.91-6Z" style="fill:#3ec6ac"/><path d="M137.88,155.75S118.37,172.16,119,187.12c8.87,1,21.73-1.46,21.73-1.46S135.88,166.18,137.88,155.75Z" style="fill:#33dbba;opacity:0.32"/><path d="M240.74,142.08S173,181.69,137.31,130.44a4.46,4.46,0,0,0-6.51-.84c-13.07,10.92-27.4,45.06-26,61.61" style="fill:none;stroke:#298977;stroke-linecap:round;stroke-linejoin:round;opacity:0.41000000000000003"/><polygon points="143.42 319.21 139.32 319.21 275.05 124.09 277.55 131.74 143.42 319.21" style="fill:#f77458"/><path d="M164.43,190.83a95.24,95.24,0,0,1,12.85,1.25,109,109,0,0,1,13.82,3.2c3.14.94,8.71,5.18,9.79,8.87,2.4,8.13-8.65,8.67-12.8,7.09-6.65-2.54-10.43-6.39-16.59-9.89-7-4-14.28-8.42-22.37-9.42A73.93,73.93,0,0,1,164.43,190.83Z" style="fill:#fff;opacity:0.09"/><path d="M223.47,243a182.31,182.31,0,0,1,10,16.85c1.54,2.88,3.21,5.7,4.48,8.71a61.07,61.07,0,0,1,3.25,9.28l-.18.08c-1.8-2.76-3.36-5.62-4.88-8.5s-2.72-5.91-4.1-8.86-2.77-5.88-4.23-8.8-2.89-5.83-4.52-8.65Z" style="fill:#3b3962"/><path d="M85.62,239.56a82.76,82.76,0,0,1-9.54-5,41.64,41.64,0,0,1-8.25-7.09,47.93,47.93,0,0,1-6.6-8.67,22.67,22.67,0,0,1-3.07-10.46l.2,0A45.17,45.17,0,0,0,63,217.75a80.66,80.66,0,0,0,6,8.69,41.25,41.25,0,0,0,7.63,7.3,80.13,80.13,0,0,0,9.08,5.64Z" style="fill:#e55523"/><path d="M152.38,220a1.18,1.18,0,0,0,.51-2.16,20.18,20.18,0,0,0-10.33-3.22,64.19,64.19,0,0,0-12.15.79,113,113,0,0,0-11.44,3A35.94,35.94,0,0,1,108.39,220a1.18,1.18,0,0,0-.4,2.3c5.74,1.86,13.14,3.66,19.19,3.2C137.52,224.68,144.35,220.86,152.38,220Z" style="fill:#fff;opacity:0.08"/><path d="M85,204.7S68.18,151,67.37,143.58s-7.7-6.67-6.5.6S76.66,196.36,85,204.7Z" style="fill:#fff;opacity:0.08"/><path d="M229.33,146.29c-1.72,1.84-5.81,3.19-8.17,4.26a69.46,69.46,0,0,1-9.77,3.63c-6.51,1.86-13.49,2.73-20.18,1.35-12.91-2.65-21.14-14.12-28.44-24.13-6.77-9.27-13.86-18.87-24.67-23.66-3.78-1.67-8.58-1.52-12.55-.78-3.65.67-13.2,3.67-13.26,8.41a6.43,6.43,0,0,0,1,3.18c5.42,9.75,16.21,17.58,25.29,23.74a122.86,122.86,0,0,0,32.15,15.92C191.42,164.66,213.89,162.83,229.33,146.29Z" style="fill:#33dbba;opacity:0.32"/><path d="M272.88,189.35s-13.88,5.37-14.95,4.54c-.44,4.37-4.6,14.31-6.34,16a32.83,32.83,0,0,0,13.18-1.5,9.92,9.92,0,0,0,5.05-5.55Z" style="fill:#f4f4f4"/><path d="M269.79,202.89s-3.78,1.73-5.52-.87a.16.16,0,0,0-.3.08c-.17,3.32-.76,7.27-4.88,7.43C262.94,209,267,209.45,269.79,202.89Z" style="fill:#fff"/><path d="M273,179.2c3.47,2.7,7.18-.12,8.23-2.93,3.06,2.4,14.44,10.54,14.44,10.54a12,12,0,0,1-4.61,3.66,4.56,4.56,0,0,1-4.23-.66C282.67,186.74,273,179.2,273,179.2Z" style="fill:#fff"/><path d="M301,168.7s2.1,1.06.85,4.34-15.93,11.83-16,16c-2.08-1.5-8.27-6.27-12-9.16a3.65,3.65,0,0,1-.53-5.26,92.48,92.48,0,0,1,8.84-9.1,24.19,24.19,0,0,1,8-4.08Z" style="fill:#f4f4f4"/><path d="M301,168.7c-3.66-2.44-7.16.64-8,3.51-3.23-2.17-15.16-9.47-15.16-9.47s3.58-5.62,7.65-4.21C289.11,160.7,301,168.7,301,168.7Z" style="fill:#fff"/></svg>