<svg xmlns="http://www.w3.org/2000/svg" width="44" height="27" viewBox="0 0 44 27">
  <g fill="none" fill-rule="evenodd" transform="translate(-2 -10)">
    <polygon points="0 0 48 0 48 48 0 48"/>
    <path fill="#A62626" fill-rule="nonzero" d="M34.9531727,19.1099693 C35.7238984,19.1450022 36.3194592,19.775596 36.3194592,20.5463217 C36.3194592,20.6864537 36.1793272,24.4349833 33.2715893,26.8872924 C31.449874,28.4287438 28.9625319,29.0943706 25.949695,28.8491397 C24.5133425,31.0562179 22.2361984,33.6486589 18.6978667,36.4512979 C18.4176028,36.6614958 18.1373389,36.7665948 17.822042,36.7665948 C17.4016461,36.7665948 16.9812503,36.5914298 16.7360194,36.2411 C16.2455576,35.6455392 16.3506565,34.7346815 16.9812503,34.2792527 C19.8539552,32.0021085 21.7807695,29.9701953 23.0419571,28.1835129 C22.3412973,27.8331831 21.6056046,27.3076882 21.2202417,26.4318636 C20.8699119,25.6261049 20.6597139,24.2948514 21.8858685,22.508169 C23.6375178,19.915728 25.3891672,19.3201672 26.054794,19.1800352 C26.9656516,19.0048703 27.8414763,19.5303651 28.0867072,20.4061898 C28.2618721,21.0367836 28.682268,23.0336638 27.4210805,26.0815337 C29.1026638,26.0465007 30.4339173,25.5910719 31.449874,24.7502802 C33.4117212,23.1737958 33.5168202,20.5112887 33.5168202,20.4762558 C33.5518532,19.70553 34.182447,19.1099693 34.9531727,19.1099693 Z M12.1116651,19.775596 C12.8823908,19.810629 13.4779516,20.4412228 13.4779516,21.2119485 L13.4772266,21.2512895 C13.4561049,21.9696964 12.9132029,30.1964324 4.22924298,36.5213639 C3.94897908,36.6965288 3.66871518,36.7665948 3.38845129,36.7665948 C2.96805544,36.7665948 2.51262661,36.5563968 2.2673957,36.206067 C1.81196687,35.5754732 1.95209881,34.6996485 2.58269258,34.2442197 C10.3249827,28.6039088 10.6753126,21.4221464 10.6753126,21.1418825 C10.7103456,20.3711568 11.3409394,19.740563 12.1116651,19.775596 Z M34.147414,31.3014488 C34.3225789,32.0721745 33.8321171,32.8078672 33.0613914,32.9830322 C29.8001388,33.7304026 27.4942026,33.818934 27.2616125,33.8236133 L27.1758495,33.8238239 C26.4401568,33.8238239 25.809563,33.2282631 25.7745301,32.4575374 C25.7394971,31.6868116 26.3350579,31.0211849 27.1057836,30.9861519 C27.1408166,30.9861519 29.3478947,30.8810529 32.4658306,30.2154262 C33.2365563,30.0402612 33.972249,30.5307231 34.147414,31.3014488 Z M44.0617493,19.1450022 C44.2719473,19.4252661 46.1637286,22.0527402 45.9885636,24.6802142 C45.8133987,27.868216 43.3610896,29.8300633 37.2653498,31.7919106 C37.1252179,31.7919106 36.9850859,31.8269436 36.844954,31.8269436 C36.2493932,31.8269436 35.6888654,31.4415807 35.5137005,30.8460199 C35.2684696,30.1103272 35.6888654,29.3045685 36.4245581,29.0943706 C43.0457927,26.9923914 43.1508917,25.380874 43.1859247,24.5050493 C43.2559906,23.1387628 42.205001,21.3871134 41.7846052,20.7915526 C41.3291763,20.1609589 41.4693083,19.2851342 42.0999021,18.8297054 C42.7304958,18.3742765 43.6063205,18.5144085 44.0617493,19.1450022 Z M18.1023059,10.0013926 C18.8730316,10.0364256 19.4685924,10.6670194 19.4685924,11.4377451 C19.4685924,11.8581409 19.1182625,21.6323443 18.1723719,28.043381 C18.0672729,28.7440407 17.4717121,29.2345025 16.7710524,29.2345025 L16.5608544,29.2345025 C15.7901287,29.1294036 15.2646339,28.3937108 15.3697329,27.6229851 C16.3156235,21.3871134 16.6309204,11.4377451 16.6309204,11.3676791 C16.7009864,10.5969534 17.2965472,9.96635962 18.1023059,10.0013926 Z M25.4242002,22.613268 C25.0388373,22.9285649 24.6184415,23.3839937 24.1630126,24.0846534 C23.7075838,24.7853132 23.6725508,25.170676 23.7075838,25.275775 C23.7776498,25.4509399 24.1279797,25.6261049 24.4783095,25.7662368 C25.1439363,24.4349833 25.3541342,23.3839937 25.4242002,22.613268 Z"/>
  </g>
</svg>
