<?xml version="1.0" standalone="no"?>
<!DOCTYPE svg PUBLIC "-//W3C//DTD SVG 1.1//EN" "http://www.w3.org/Graphics/SVG/1.1/DTD/svg11.dtd" >
<svg xmlns="http://www.w3.org/2000/svg">
<metadata>Generated by IcoMoon</metadata>
<defs>
<font id="sonnat-icon" horiz-adv-x="1024">
<font-face units-per-em="1024" ascent="960" descent="-64" />
<missing-glyph horiz-adv-x="1024" />
<glyph unicode="&#x20;" horiz-adv-x="512" d="" />
<glyph unicode="&#xe900;" glyph-name="add-person" d="M469.333 405.333h256c117.632 0 213.333-95.701 213.333-213.333 0-68.050-53.4-123.881-120.491-127.782l-7.509-0.218h-426.667c-70.571 0-128 57.429-128 128 0 114.536 90.731 208.281 204.094 213.136l9.24 0.197h256zM597.333 832c94.123 0 170.667-76.544 170.667-170.667s-76.544-170.667-170.667-170.667c-94.123 0-170.667 76.544-170.667 170.667s76.544 170.667 170.667 170.667zM170.667 832c23.595 0 42.667-19.115 42.667-42.667v0-85.333h85.333c23.595 0 42.667-19.115 42.667-42.667s-19.072-42.667-42.667-42.667v0h-85.333v-85.333c0-23.552-19.072-42.667-42.667-42.667s-42.667 19.115-42.667 42.667v0 85.333h-85.333c-23.595 0-42.667 19.115-42.667 42.667s19.072 42.667 42.667 42.667v0h85.333v85.333c0 23.552 19.072 42.667 42.667 42.667z" />
<glyph unicode="&#xe901;" glyph-name="added" d="M725.333 405.333h-170.667v-170.667c0-23.552-19.072-42.667-42.667-42.667s-42.667 19.115-42.667 42.667v170.667h-170.667c-23.595 0-42.667 19.115-42.667 42.667s19.072 42.667 42.667 42.667h170.667v170.667c0 23.552 19.072 42.667 42.667 42.667s42.667-19.115 42.667-42.667v-170.667h170.667c23.595 0 42.667-19.115 42.667-42.667s-19.072-42.667-42.667-42.667zM512 917.333c-258.773 0-469.333-210.56-469.333-469.333s210.56-469.333 469.333-469.333c258.773 0 469.333 210.56 469.333 469.333s-210.56 469.333-469.333 469.333z" />
<glyph unicode="&#xe902;" glyph-name="block" d="M703.168 256.853c-6.229-6.229-14.421-9.387-22.613-9.387-8.235 0-16.384 3.157-22.656 9.387l-337.067 337.024c-12.501 12.501-12.501 32.768 0 45.269s32.768 12.501 45.269 0l337.067-337.024c12.501-12.501 12.501-32.768 0-45.269zM512.021 832c-211.755 0-384-172.245-384-384 0-211.712 172.245-384 384-384 211.712 0 384 172.288 384 384 0 211.755-172.288 384-384 384z" />
<glyph unicode="&#xe903;" glyph-name="bookmark" d="M682.709 832h-341.419c-70.571 0-128-57.429-128-128v-597.333c0-15.744 8.661-30.208 22.528-37.632s30.763-6.613 43.819 2.133l232.363 154.88 232.363-154.88c7.125-4.779 15.403-7.168 23.68-7.168 6.912 0 13.824 1.664 20.139 5.035 13.867 7.424 22.528 21.888 22.528 37.632v597.333c0 70.571-57.429 128-128 128z" />
<glyph unicode="&#xe904;" glyph-name="brush" d="M496.252 372.041c-17.109 28.715-42.581 49.493-71.765 61.781l45.099 42.453c7.765 0.085 33.323-0.597 51.712-18.987 17.365-17.365 19.584-39.723 19.328-51.584l-40.363-42.453c-1.493 2.901-2.304 5.931-4.011 8.789zM883.494 819.486c-43.52 43.605-112.896 44.757-157.995 2.304l-286.677-271.915c-7.509-7.168-11.563-16.64-12.629-26.539l-82.901-78.080c-23.637-2.56-47.232-9.6-69.163-22.656-59.947-35.712-79.019-92.245-94.336-137.6-18.133-53.845-30.891-85.12-81.323-101.589-19.157-6.229-31.36-25.045-29.184-45.099 2.133-20.053 18.048-35.84 38.101-37.888 39.509-4.053 75.52-6.613 109.056-6.613 75.179 0 137.643 12.757 198.4 49.621 59.691 36.224 94.72 89.045 100.139 142.464l73.173 76.928c9.728 1.152 19.115 4.907 26.112 12.331l271.659 286.549c42.197 44.928 41.173 114.219-2.432 157.781z" />
<glyph unicode="&#xe905;" glyph-name="call-end" d="M698.334 333.751c0-31.147 25.259-56.405 56.405-56.405h153.259c31.147 0 56.363 25.088 56.405 66.005v57.771c0 67.456-40.149 128.384-101.845 155.648-222.635 98.176-478.037 98.432-700.843 0.725-61.824-27.136-102.144-88.107-102.144-155.691v-58.368c0-41.003 25.301-66.091 56.448-66.091h153.216c31.189 0 56.448 25.259 56.448 56.405v92.715c0 8.704 5.888 16.469 14.336 18.56 112.768 28.203 231.211 28.544 343.979 0.256 8.405-2.091 14.336-9.856 14.336-18.56v-92.971z" />
<glyph unicode="&#xe906;" glyph-name="car-inspected" d="M526.323 787.78c-9.131-26.283-14.336-54.4-14.336-83.797v0l0.085-1.536h-168.96c-23.296 0-44.843-12.16-54.955-31.061v0l-85.675-160.64c138.368-16.299 277.888-20.651 417.024-15.019 41.899-29.952 93.056-47.744 148.48-47.744 90.923 0 170.539 47.531 215.936 118.912 13.995-0.896 27.307-7.893 34.645-21.035 11.477-20.565 4.139-46.549-16.427-58.027v0l-66.773-37.205c4.565-21.504 7.424-43.392 7.424-65.28v0-189.312h-0.939c0-3.029-0.171-6.016-0.768-8.832v0-120.619c0-29.483-23.893-53.419-53.376-53.419s-53.419 23.936-53.419 53.419v0 53.419h0.128v26.837c-107.221-9.685-214.912-14.848-322.645-14.848-107.648 0-215.253 5.12-322.389 14.805v0-26.795h0.043v-53.419c0-29.483-23.936-53.419-53.419-53.419-29.525 0-53.419 23.936-53.419 53.419v0 53.419h0.128v64.427c-1.067 3.669-1.024 7.637-1.024 11.605v0h-0.427v189.312c0 21.931 2.816 43.776 7.381 65.323v0l-66.731 37.163c-20.565 11.477-27.989 37.461-16.512 58.027 11.477 20.608 37.589 28.032 58.027 16.512v0l54.059-30.123c0.555 1.067 0.939 2.219 1.493 3.328v0l93.952 176c25.045 47.019 74.923 76.203 130.176 76.203v0zM844.275 367.898c-4.608 1.451-9.515 1.92-14.507 0.853v0l-26.411-5.205c-41.771-5.333-84.267-9.685-126.379-12.971-17.621-1.408-30.763-16.811-29.397-34.389 1.323-16.811 15.317-29.525 31.872-29.525 0.853 0 1.707 0.043 2.56 0.128 43.051 3.371 86.613 7.851 131.541 13.611v0l1.237 0.256 27.221 5.291c3.371 0.683 6.315 2.219 9.173 3.797 2.219 1.365 4.309 2.901 6.187 4.693 7.723 7.253 12.075 17.835 9.899 29.056-1.323 6.827-5.163 12.288-9.899 16.725-3.456 3.243-7.552 5.632-11.947 7.211-0.384 0.128-0.725 0.341-1.152 0.469zM194.078 368.751c-5.077 0.981-9.984 0.555-14.549-0.896v0l-1.109-0.427c-4.352-1.536-8.405-3.84-11.776-6.997-4.864-4.437-8.789-9.984-10.155-16.939-2.176-11.264 2.261-21.931 10.155-29.227 1.835-1.707 3.84-3.2 5.973-4.523 2.859-1.579 5.76-3.115 9.131-3.797v0l30.549-5.888c42.837-5.461 86.4-9.899 129.493-13.269 0.853-0.085 1.707-0.128 2.56-0.128 16.512 0 30.507 12.715 31.872 29.525 1.365 17.621-11.819 32.981-29.44 34.389-42.069 3.285-84.608 7.637-124.288 12.629v0zM768.004 874.679c94.080 0 170.667-76.587 170.667-170.667 0-94.123-76.587-170.667-170.667-170.667-94.123 0-170.667 76.544-170.667 170.667 0 94.080 76.544 170.667 170.667 170.667zM844.207 758.711c-6.656 6.699-17.451 6.699-24.107 0v0l-73.301-73.259-30.891 30.891c-6.656 6.699-17.451 6.699-24.107 0-6.699-6.656-6.699-17.451 0-24.107v0l42.965-42.965c3.328-3.328 7.68-4.992 12.032-4.992 4.395 0 8.747 1.664 12.075 4.992v0l85.333 85.333c6.656 6.656 6.656 17.451 0 24.107z" />
<glyph unicode="&#xe907;" glyph-name="car-inspection" d="M491.891 787.78c-8.747-27.776-12.629-56.491-11.221-85.333v0h-137.557c-23.296 0-44.843-12.16-54.955-31.061v0l-85.675-160.64c137.131-16.128 275.413-20.523 413.312-15.104 33.579-16.768 70.357-26.539 108.971-26.539 23.68 0 47.019 3.371 69.376 9.941v0l28.672-28.672c22.144-22.144 51.627-34.389 82.944-34.389 11.904 0 23.381 2.304 34.432 5.717 1.579-12.075 2.603-24.192 2.603-36.352v0-189.312h-0.939c0-3.029-0.171-6.016-0.768-8.832v0-120.619c0-29.483-23.893-53.419-53.376-53.419s-53.419 23.936-53.419 53.419v0 53.419h0.128v26.837c-107.221-9.685-214.912-14.848-322.645-14.848-107.648 0-215.253 5.12-322.389 14.805v0-26.795h0.043v-53.419c0-29.483-23.936-53.419-53.419-53.419-29.525 0-53.419 23.936-53.419 53.419v0 53.419h0.128v64.427c-1.067 3.669-1.024 7.637-1.024 11.605v0h-0.427v189.312c0 21.931 2.816 43.776 7.381 65.323v0l-66.731 37.163c-20.565 11.477-27.989 37.461-16.512 58.027 11.477 20.608 37.589 28.032 58.027 16.512v0l54.059-30.123c0.555 1.067 0.939 2.219 1.493 3.328v0l93.952 176c25.045 47.019 74.923 76.203 130.176 76.203v0zM833.493 369.272l-3.725-0.521-26.411-5.205c-41.771-5.333-84.267-9.685-126.379-12.971-17.621-1.408-30.763-16.811-29.397-34.389 1.323-16.811 15.317-29.525 31.872-29.525 0.853 0 1.707 0.043 2.56 0.128 43.051 3.371 86.613 7.851 131.541 13.611v0l1.237 0.256 27.221 5.291c3.371 0.683 6.315 2.219 9.173 3.797 2.219 1.365 4.309 2.901 6.187 4.693 7.723 7.253 12.075 17.835 9.899 29.056-1.323 6.827-5.163 12.288-9.899 16.725-3.456 3.243-7.552 5.632-11.947 7.211-0.384 0.128-0.725 0.341-1.152 0.469-4.608 1.451-9.515 1.92-14.507 0.853zM194.078 368.751c-5.077 0.981-9.984 0.555-14.549-0.896-0.384-0.085-0.725-0.299-1.109-0.427-4.352-1.536-8.405-3.84-11.776-6.997-4.864-4.437-8.789-9.984-10.155-16.939-2.176-11.264 2.261-21.931 10.155-29.227 1.835-1.707 3.84-3.2 5.973-4.523 2.859-1.579 5.76-3.115 9.131-3.797v0l30.549-5.888c42.837-5.461 86.4-9.899 129.493-13.269 0.853-0.085 1.707-0.128 2.56-0.128 16.512 0 30.507 12.715 31.872 29.525 1.365 17.621-11.819 32.981-29.44 34.389-42.069 3.285-84.608 7.637-124.288 12.629v0zM611.584 827.494c60.459 60.416 165.888 60.459 226.304 0 54.613-54.656 61.397-139.264 20.309-201.387v0l70.187-70.144c12.501-12.501 12.501-32.768 0-45.269-6.229-6.229-14.421-9.344-22.613-9.344s-16.384 3.115-22.613 9.344v0l-70.187 70.187c-26.624-17.621-57.429-26.453-88.235-26.453-40.96 0-81.92 15.573-113.152 46.763-62.336 62.421-62.336 163.925 0 226.304zM724.736 810.342c-25.643 0-49.749-9.984-67.883-28.117-37.419-37.419-37.419-98.347 0-135.765 37.461-37.419 98.347-37.419 135.765 0s37.419 98.347 0 135.765c-18.133 18.133-42.24 28.117-67.883 28.117z" />
<glyph unicode="&#xe908;" glyph-name="car" d="M288.16 671.397c10.069 18.858 31.658 31.061 54.953 31.061h337.784c23.295 0 44.884-12.202 54.911-31.061l85.673-160.636c-205.52-24.234-413.516-24.234-618.993 0l85.673 160.636zM857.362 314.456v0c-1.877-1.792-3.968-3.328-6.187-4.693-2.859-1.579-5.803-3.115-9.216-3.797l-28.458-5.547c-44.884-5.803-88.446-10.282-131.538-13.653-0.811-0.085-1.707-0.085-2.517-0.085-16.554 0-30.549 12.714-31.871 29.482-1.365 17.621 11.776 33.023 29.397 34.389 42.111 3.328 84.606 7.68 126.376 13.013l26.367 5.205c5.035 1.067 9.941 0.597 14.549-0.853 0.384-0.128 0.768-0.384 1.152-0.512 4.352-1.579 8.49-3.925 11.946-7.168 4.693-4.437 8.576-9.898 9.898-16.725 2.176-11.221-2.176-21.802-9.898-29.055v0zM166.605 360.45c3.413 3.157 7.466 5.461 11.861 6.997 0.341 0.085 0.64 0.341 1.024 0.427 4.608 1.408 9.514 1.877 14.592 0.896l28.415-5.589c39.679-4.949 82.217-9.301 124.285-12.629 17.621-1.365 30.805-16.768 29.397-34.389-1.323-16.768-15.317-29.482-31.871-29.482-0.811 0-1.707 0.043-2.517 0.085-43.092 3.371-86.654 7.85-129.49 13.269l-30.549 5.931c-3.371 0.683-6.315 2.219-9.13 3.797-2.176 1.323-4.181 2.773-6.016 4.48-7.85 7.296-12.33 17.962-10.112 29.269 1.365 6.955 5.291 12.501 10.112 16.938v0zM1018.553 545.875c-11.434 20.565-37.46 27.946-58.025 16.512l-54.057-30.122c-0.555 1.067-0.896 2.261-1.493 3.328l-93.864 175.953c-25.087 47.018-74.964 76.244-130.216 76.244h-337.784c-55.252 0-105.128-29.226-130.216-76.244l-93.907-175.996c-0.597-1.067-0.939-2.219-1.493-3.285l-54.1 30.122c-20.437 11.477-46.506 4.096-58.025-16.512-11.434-20.565-4.053-46.591 16.554-58.025l66.686-37.162c-4.523-21.546-7.381-43.391-7.381-65.364v-189.308h0.427c0-3.925 0-7.936 1.067-11.605v-64.382h-0.128v-53.417c0-29.525 23.893-53.417 53.417-53.417 29.482 0 53.417 23.893 53.417 53.417v53.417h-0.043v26.794c107.133-9.685 214.736-14.805 322.382-14.805 107.731 0 215.376 5.163 322.638 14.848v-26.837h-0.128v-53.417c0-29.525 23.893-53.417 53.417-53.417 29.482 0 53.417 23.893 53.417 53.417v53.417h-0.043v67.156c0.597 2.859 0.768 5.845 0.768 8.832h0.939v189.308c0 21.93-2.859 43.775-7.424 65.321l66.729 37.204c20.608 11.477 27.989 37.46 16.469 58.025v0z" />
<glyph unicode="&#xe909;" glyph-name="checked" d="M733.21 534.46l-245.845-245.845c-8.32-8.363-19.243-12.501-30.165-12.501s-21.803 4.139-30.165 12.501l-123.776 123.733c-16.683 16.64-16.683 43.691 0 60.331 16.64 16.683 43.648 16.683 60.331 0l93.611-93.568 215.68 215.68c16.683 16.683 43.648 16.683 60.331 0s16.683-43.648 0-60.331zM511.983 919.057c-259.2 0-469.333-210.133-469.333-469.333s210.133-469.333 469.333-469.333c259.243 0 469.333 210.133 469.333 469.333s-210.091 469.333-469.333 469.333z" />
<glyph unicode="&#xe90a;" glyph-name="circle-add" d="M693.001 405.333h-138.325v-138.368c0-23.552-19.072-42.667-42.667-42.667s-42.667 19.115-42.667 42.667v138.368h-138.325c-23.595 0-42.667 19.115-42.667 42.667s19.072 42.667 42.667 42.667h138.325v138.368c0 23.552 19.072 42.667 42.667 42.667s42.667-19.115 42.667-42.667v-138.368h138.325c23.595 0 42.667-19.115 42.667-42.667s-19.072-42.667-42.667-42.667zM512.009 874.667c-235.264 0-426.667-191.403-426.667-426.667s191.403-426.667 426.667-426.667c235.221 0 426.667 191.403 426.667 426.667s-191.445 426.667-426.667 426.667z" />
<glyph unicode="&#xe90b;" glyph-name="circle-check" d="M702.541 524.501l-213.333-213.333c-8.32-8.32-19.243-12.501-30.165-12.501s-21.845 4.181-30.165 12.501l-107.435 107.392c-16.64 16.64-16.64 43.691 0 60.331 16.683 16.683 43.691 16.683 60.331 0l77.269-77.227 183.168 183.168c16.683 16.683 43.648 16.683 60.331 0s16.683-43.648 0-60.331zM511.991 874.667c-235.221 0-426.667-191.403-426.667-426.667s191.445-426.667 426.667-426.667c235.264 0 426.667 191.403 426.667 426.667s-191.403 426.667-426.667 426.667z" />
<glyph unicode="&#xe90c;" glyph-name="circle-error" d="M544 448c0-17.664-14.336-32-32-32s-32 14.336-32 32l-21.333 175.616c0 29.483 23.893 53.333 53.333 53.333s53.333-23.851 53.333-53.333l-21.333-175.616zM512 224c-29.44 0-53.333 23.893-53.333 53.333s23.893 53.333 53.333 53.333c29.44 0 53.333-23.893 53.333-53.333s-23.893-53.333-53.333-53.333v0zM512 874.667c-235.605 0-426.667-191.019-426.667-426.667s191.061-426.667 426.667-426.667c235.605 0 426.667 191.019 426.667 426.667s-191.061 426.667-426.667 426.667v0z" />
<glyph unicode="&#xe90d;" glyph-name="circle-help" d="M591.501 427.332c-30.805-22.827-36.821-36.736-36.821-52.992 0-23.552-19.115-42.667-42.667-42.667-23.595 0-42.667 19.115-42.667 42.667 0 60.885 38.101 96.939 71.339 121.515 35.797 26.581 39.467 47.829 39.125 61.483 0 38.528-30.421 68.949-67.797 68.949-37.419 0-67.84-30.421-67.84-67.84 0-23.552-19.072-42.667-42.667-42.667s-42.667 19.115-42.667 42.667c0 84.437 68.693 153.173 153.173 153.173 84.395 0 153.131-68.736 153.131-153.173 1.28-49.408-23.467-93.909-73.643-131.115zM512.013 181.316c-29.483 0-53.333 23.893-53.333 53.333 0 29.483 23.851 53.333 53.333 53.333 29.44 0 53.333-23.851 53.333-53.333 0-29.44-23.893-53.333-53.333-53.333zM512.013 874.65c-235.264 0-426.667-191.36-426.667-426.667 0-235.264 191.403-426.667 426.667-426.667 235.221 0 426.667 191.403 426.667 426.667 0 235.307-191.445 426.667-426.667 426.667z" />
<glyph unicode="&#xe90e;" glyph-name="circle-history" d="M656.623 312.853c-8.363-11.52-21.376-17.621-34.603-17.621-8.661 0-17.451 2.645-25.003 8.149l-122.624 89.003c-0.768 0.597-1.067 1.536-1.792 2.176-3.541 2.901-6.315 6.4-8.789 10.325-0.853 1.451-2.048 2.603-2.773 4.139-2.56 5.504-4.224 11.435-4.224 17.877v170.667c0 23.595 19.115 42.667 42.667 42.667 23.595 0 42.667-19.072 42.667-42.667v-148.907l105.003-76.245c11.52-8.32 17.579-21.333 17.579-34.56 0-8.704-2.645-17.451-8.107-25.003zM511.983 874.645c-235.221 0-426.667-191.36-426.667-426.667 0-235.264 191.445-426.667 426.667-426.667 235.264 0 426.667 191.403 426.667 426.667 0 235.307-191.403 426.667-426.667 426.667z" />
<glyph unicode="&#xe90f;" glyph-name="circle-info" d="M549.542 581.124c-9.813-10.24-23.467-15.787-37.547-15.787s-27.733 5.547-37.547 15.787c-10.24 9.813-15.787 23.467-15.787 37.547s5.547 27.733 15.787 37.547c19.627 20.053 55.467 20.053 75.093 0 10.24-9.813 15.787-23.467 15.787-37.547s-5.547-27.733-15.787-37.547v0zM554.662 277.338c0-23.552-19.072-42.667-42.667-42.667s-42.667 19.115-42.667 42.667v170.667c0 23.552 19.072 42.667 42.667 42.667s42.667-19.115 42.667-42.667v-170.667zM511.996 874.671c-235.605 0-426.667-191.019-426.667-426.667s191.061-426.667 426.667-426.667c235.648 0 426.667 191.019 426.667 426.667s-191.019 426.667-426.667 426.667v0z" />
<glyph unicode="&#xe910;" glyph-name="circle-night-mode" d="M764.54 412.292c-17.536-110.251-106.539-199.253-216.789-216.832-131.925-21.035-249.259 55.893-290.859 169.344-4.565 12.459 9.387 24.149 20.907 17.536 40.576-23.424 89.344-34.219 141.013-27.008 95.275 13.355 172.501 90.581 185.856 185.856 7.253 51.627-3.584 100.437-27.008 141.056-6.613 11.477 5.077 25.429 17.493 20.864 113.451-41.643 190.379-158.933 169.387-290.816zM511.996 874.671c-235.264 0-426.667-191.403-426.667-426.667s191.403-426.667 426.667-426.667c235.264 0 426.667 191.403 426.667 426.667s-191.403 426.667-426.667 426.667z" />
<glyph unicode="&#xe911;" glyph-name="circle-remove" d="M670.165 350.165c16.683-16.683 16.683-43.648 0-60.331-8.32-8.32-19.243-12.501-30.165-12.501s-21.845 4.181-30.165 12.501l-97.835 97.835-97.835-97.835c-8.32-8.32-19.243-12.501-30.165-12.501s-21.845 4.181-30.165 12.501c-16.683 16.683-16.683 43.648 0 60.331l97.835 97.835-97.835 97.835c-16.683 16.683-16.683 43.648 0 60.331s43.648 16.683 60.331 0l97.835-97.835 97.835 97.835c16.683 16.683 43.648 16.683 60.331 0s16.683-43.648 0-60.331l-97.835-97.835 97.835-97.835zM512 874.667c-235.264 0-426.667-191.403-426.667-426.667s191.403-426.667 426.667-426.667c235.264 0 426.667 191.403 426.667 426.667s-191.403 426.667-426.667 426.667v0z" />
<glyph unicode="&#xe912;" glyph-name="contact" d="M796.335 536.124c0-11.307-9.173-20.48-20.437-20.48h-33.792c-3.157 0-5.931-2.133-6.741-5.205-10.24-40.917-10.112-83.925 0.085-124.885 0.811-3.072 3.584-5.205 6.741-5.205h33.707c11.264 0 20.437-9.173 20.437-20.48v-55.637c0-11.307-9.088-20.48-23.979-20.48h-21.205c-24.533 0-46.635 14.635-56.491 37.077-35.499 80.896-35.413 173.611 0.256 254.421 9.856 22.4 32 36.992 56.491 36.992h20.949c14.891 0 23.979-9.173 23.979-20.48v-55.637zM508.762 286.182h-235.733c-26.027 0-47.104 21.12-47.104 47.147 0 52.053 42.197 94.293 94.293 94.293h141.397c52.053 0 94.251-42.24 94.251-94.293 0-26.027-21.077-47.147-47.104-47.147v0zM390.916 611.686c39.040 0 70.699-31.659 70.699-70.699 0-39.083-31.659-70.699-70.699-70.699-39.083 0-70.699 31.616-70.699 70.699 0 39.040 31.616 70.699 70.699 70.699v0zM853.338 789.308h-682.667c-47.147 0-85.333-38.187-85.333-85.333v-512c0-47.104 38.187-85.333 85.333-85.333h682.667c47.104 0 85.333 38.229 85.333 85.333v512c0 47.147-38.229 85.333-85.333 85.333v0z" />
<glyph unicode="&#xe913;" glyph-name="declined" d="M692.992 327.296c16.683-16.683 16.683-43.691 0-60.331-8.32-8.32-19.243-12.501-30.165-12.501s-21.845 4.181-30.165 12.501l-120.661 120.704-120.661-120.704c-8.363-8.32-19.243-12.501-30.165-12.501s-21.845 4.181-30.165 12.501c-16.683 16.64-16.683 43.648 0 60.331l120.661 120.704-120.661 120.661c-16.683 16.683-16.683 43.691 0 60.331 16.64 16.683 43.648 16.683 60.331 0l120.661-120.661 120.661 120.661c16.683 16.683 43.648 16.683 60.331 0 16.683-16.64 16.683-43.648 0-60.331l-120.661-120.661 120.661-120.704zM512 917.333c-259.2 0-469.333-210.133-469.333-469.333 0-259.243 210.133-469.333 469.333-469.333s469.333 210.091 469.333 469.333c0 259.2-210.133 469.333-469.333 469.333v0z" />
<glyph unicode="&#xe914;" glyph-name="dialog" d="M592.29 833.314h-160.597c-167.424 0-303.701-136.235-303.701-303.701 0-156.971 124.075-285.483 279.296-292.651v-128.128c0-15.744 8.661-30.208 22.485-37.632 6.357-3.371 13.269-5.035 20.181-5.035 8.235 0 16.512 2.389 23.637 7.125 30.293 20.139 60.629 40.107 91.008 60.117 50.816 33.536 101.632 67.029 152.107 101.12 120.661 81.536 179.285 178.091 179.285 295.083 0 167.467-136.235 303.701-303.701 303.701z" />
<glyph unicode="&#xe915;" glyph-name="edit" d="M762.667 638.31l-40.747-40.747-60.331 60.331 40.704 40.747c16.128 16.128 44.16 16.128 60.373 0 16.64-16.64 16.64-43.691 0-60.331v0zM297.131 172.177l-73.131-12.928 13.141 74.283 38.315 38.443 59.52-61.781-37.845-38.016zM822.997 758.972c-49.963 49.963-131.157 49.877-181.035 0l-394.325-394.325c-0.64-0.555-1.323-1.024-1.877-1.621l-78.549-78.763c-6.187-6.187-10.283-14.080-11.776-22.699l-26.027-147.499c-2.389-13.696 2.005-27.733 11.861-37.547 8.064-8.107 18.944-12.501 30.165-12.501 2.432 0 4.949 0.171 7.381 0.64l146.432 25.813c8.661 1.536 16.64 5.675 22.827 11.947l76.843 77.227 398.080 398.336c49.877 49.877 49.877 131.115 0 180.992v0z" />
<glyph unicode="&#xe916;" glyph-name="favourite" d="M726.959 826.603c-87.168 10.197-166.272-26.411-215.851-87.893-49.536 61.483-128.597 98.091-215.765 87.893-127.829-14.976-219.947-134.699-210.176-263.040 18.987-248.107 318.379-451.883 403.541-505.088 13.824-8.661 31.019-8.661 44.885 0 85.163 53.205 384.512 256.981 403.499 505.131 9.813 128.299-82.347 248.021-210.133 262.997z" />
<glyph unicode="&#xe917;" glyph-name="flag" d="M809.792 704h-196.267l-10.197 51.029c-4.011 19.968-21.504 34.304-41.813 34.304h-306.389c-23.552 0-42.667-19.115-42.667-42.667v-640c0-23.552 19.072-42.667 42.667-42.667s42.667 19.115 42.667 42.667v256h238.976l10.197-51.029c3.968-19.968 21.504-34.304 41.813-34.304h221.013c23.595 0 42.667 19.115 42.667 42.667v341.333c0 23.552-19.072 42.667-42.667 42.667z" />
<glyph unicode="&#xe918;" glyph-name="gavel" d="M362.876 64.606c23.595 0 42.667-19.115 42.667-42.667s-19.072-42.667-42.667-42.667v0h-320.213c-23.595 0-42.667 19.115-42.667 42.667s19.072 42.667 42.667 42.667v0zM423.223 881.771c16.64 16.683 43.648 16.683 60.331 0v0l271.531-271.531c16.683-16.64 16.683-43.648 0-60.331-8.32-8.32-19.243-12.501-30.165-12.501s-21.845 4.181-30.165 12.501v0l-10.667 10.667-107.776-107.819 287.104-268.8c26.197-27.819 25.557-71.424-1.493-98.475-27.008-26.965-70.528-27.648-98.389-1.493v0l-268.416 287.616-112.725-112.725 10.667-10.667c16.64-16.683 16.64-43.691 0-60.331-8.363-8.363-19.285-12.501-30.165-12.501-10.923 0-21.845 4.139-30.165 12.501v0l-230.955 230.869c0 0.043-0.043 0.043-0.043 0.085v0l-40.576 40.576c-16.64 16.683-16.64 43.648 0 60.331 16.683 16.683 43.691 16.683 60.331 0v0l10.453-10.453 301.739 301.696-10.453 10.453c-16.683 16.683-16.683 43.691 0 60.331z" />
<glyph unicode="&#xe919;" glyph-name="history" d="M656.623 312.853c-8.363-11.52-21.376-17.621-34.603-17.621-8.661 0-17.451 2.645-25.003 8.149l-122.624 89.003c-0.768 0.597-1.067 1.536-1.792 2.176-3.541 2.901-6.315 6.4-8.789 10.325-0.853 1.451-2.048 2.603-2.773 4.139-2.56 5.504-4.224 11.435-4.224 17.877v170.667c0 23.595 19.115 42.667 42.667 42.667 23.595 0 42.667-19.072 42.667-42.667v-148.907l105.003-76.245c11.52-8.32 17.579-21.333 17.579-34.56 0-8.704-2.645-17.451-8.107-25.003zM511.983 831.979c-212.053 0-384-171.904-384-384 0-212.053 171.947-384 384-384 212.096 0 384 171.947 384 384 0 212.096-171.904 384-384 384z" />
<glyph unicode="&#xe91a;" glyph-name="info" d="M511.996 832.004c211.755 0 384-172.245 384-384s-172.245-384-384-384c-211.755 0-384 172.245-384 384s172.245 384 384 384zM511.996 490.671c-23.595 0-42.667-19.115-42.667-42.667v0-170.667c0-23.552 19.072-42.667 42.667-42.667s42.667 19.115 42.667 42.667v0 170.667c0 23.552-19.072 42.667-42.667 42.667zM549.542 656.218c-19.627 20.053-55.467 20.053-75.093 0-10.24-9.813-15.787-23.467-15.787-37.547s5.547-27.733 15.787-37.547c9.813-10.24 23.467-15.787 37.547-15.787s27.733 5.547 37.547 15.787c10.24 9.813 15.787 23.467 15.787 37.547s-5.547 27.733-15.787 37.547z" />
<glyph unicode="&#xe91b;" glyph-name="lock" d="M512 234.667c-47.104 0-85.333 38.229-85.333 85.333s38.229 85.333 85.333 85.333c47.104 0 85.333-38.229 85.333-85.333s-38.229-85.333-85.333-85.333v0zM384 721.237c0 37.547 30.549 68.096 68.096 68.096h119.808c37.547 0 68.096-30.549 68.096-68.096v-102.571h-256v102.571zM725.547 618.667h-0.213v102.571c0 84.608-68.821 153.429-153.429 153.429h-119.808c-84.608 0-153.429-68.821-153.429-153.429v-102.571h-0.213c-70.443 0-127.787-57.344-127.787-127.787v-341.76c0-70.443 57.344-127.787 127.787-127.787h427.093c70.443 0 127.787 57.344 127.787 127.787v341.76c0 70.443-57.344 127.787-127.787 127.787v0z" />
<glyph unicode="&#xe91c;" glyph-name="mail" d="M808.375 616.085l-274.901-248.747c-6.101-5.504-13.824-8.235-21.461-8.235-7.68 0-15.403 2.731-21.461 8.235l-274.944 248.747c-13.099 11.861-14.165 32.128-2.261 45.269 11.861 13.141 32.171 14.165 45.269 2.261l23.765-21.504-0.043-0.085 229.675-207.787 253.355 229.376c13.141 11.904 33.408 10.88 45.312-2.261 11.861-13.141 10.837-33.408-2.304-45.269zM808.205 789.355h-592.427c-71.893 0-130.432-58.581-130.432-130.517v-421.675c0-71.936 58.539-130.475 130.432-130.475h592.427c71.936 0 130.475 58.539 130.475 130.475v421.675c0 71.936-58.539 130.517-130.475 130.517z" />
<glyph unicode="&#xe91d;" glyph-name="mic" d="M768 531.814c23.595 0 42.667-19.115 42.667-42.667 0-150.187-111.488-274.432-256-295.253v0-87.211c0-23.595-19.072-42.667-42.667-42.667s-42.667 19.072-42.667 42.667v0 87.211c-144.512 20.821-256 145.067-256 295.253 0 23.552 19.072 42.667 42.667 42.667s42.667-19.115 42.667-42.667c0-117.632 95.701-213.333 213.333-213.333s213.333 95.701 213.333 213.333c0 23.552 19.072 42.667 42.667 42.667zM512.499 873.186c70.571 0 128-57.429 128-128v0-256c0-70.571-57.429-128-128-128s-128 57.429-128 128v0 256c0 70.571 57.429 128 128 128z" />
<glyph unicode="&#xe91e;" glyph-name="night-mode" d="M618.752 778.022c34.133-59.136 49.877-130.176 39.339-205.44-19.413-138.795-131.925-251.264-270.677-270.677-75.307-10.539-146.304 5.205-205.397 39.339-16.768 9.643-37.077-7.424-30.464-25.515 60.672-165.248 231.552-277.291 423.637-246.699 160.555 25.6 290.176 155.264 315.776 315.861 30.592 192.085-81.408 362.923-246.656 423.552-18.133 6.656-35.2-13.696-25.557-30.421z" />
<glyph unicode="&#xe91f;" glyph-name="payment" d="M170.667 469.333v128h682.667v-128h-682.667zM764.075 240.128h-173.781c-23.595 0-42.667 19.115-42.667 42.667 0 23.595 19.072 42.667 42.667 42.667h173.781c23.595 0 42.667-19.072 42.667-42.667 0-23.552-19.072-42.667-42.667-42.667v0zM853.333 789.333h-682.667c-47.104 0-85.333-38.229-85.333-85.333v-512c0-47.147 38.229-85.333 85.333-85.333h682.667c47.104 0 85.333 38.187 85.333 85.333v512c0 47.104-38.229 85.333-85.333 85.333v0z" />
<glyph unicode="&#xe920;" glyph-name="person" d="M640 405.333c117.632 0 213.333-95.701 213.333-213.333 0-70.571-57.429-128-128-128v0h-426.667c-70.571 0-128 57.429-128 128 0 117.632 95.701 213.333 213.333 213.333v0zM512 832c94.123 0 170.667-76.544 170.667-170.667s-76.544-170.667-170.667-170.667c-94.123 0-170.667 76.544-170.667 170.667s76.544 170.667 170.667 170.667z" />
<glyph unicode="&#xe921;" glyph-name="phone" d="M425.331 625.771c22.059 22.016 22.059 57.771 0 79.787l-108.373 108.331c-22.016 22.059-57.643 22.144-86.571-6.784l-40.832-40.832c-47.744-47.701-62.421-119.168-38.016-182.101 88.021-226.859 268.373-407.595 495.019-496.043 62.933-24.576 134.528-9.899 182.272 37.888l41.301 41.259c28.971 28.971 28.885 64.597 6.827 86.613l-108.331 108.373c-22.059 22.016-57.771 22.016-79.787 0l-65.536-65.579c-6.187-6.144-15.829-7.424-23.296-2.987-99.669 59.819-183.723 143.36-243.413 243.072-4.48 7.424-3.2 17.109 2.987 23.253l65.749 65.749z" />
<glyph unicode="&#xe922;" glyph-name="photo-library" d="M682.667 64h-426.667c-70.571 0-128 57.429-128 128v426.667c0 23.509 19.115 42.667 42.667 42.667v-426.667c0-70.571 57.429-128 128-128h426.667c0-23.509-19.115-42.667-42.667-42.667zM325.419 311.765l84.907 109.227c8.363 10.795 24.576 11.051 33.28 0.512l57.387-69.461c8.704-10.496 24.917-10.24 33.28 0.555l94.549 121.941c8.619 11.136 25.472 11.008 33.92-0.256l122.283-162.816c10.539-14.037 0.512-34.133-17.067-34.133h-425.728c-17.749 0-27.691 20.437-16.811 34.432zM448 661.333c35.328 0 64-28.629 64-64s-28.672-64-64-64c-35.328 0-64 28.629-64 64s28.672 64 64 64zM810.667 874.667h-512c-70.571 0-128-57.429-128-128-70.571 0-128-57.429-128-128v-426.667c0-117.632 95.701-213.333 213.333-213.333h426.667c70.571 0 128 57.429 128 128 70.571 0 128 57.429 128 128v512c0 70.571-57.429 128-128 128z" />
<glyph unicode="&#xe923;" glyph-name="photo" d="M725.291 234.667h-425.728c-17.749 0-27.691 20.437-16.811 34.432l84.907 109.227c8.363 10.795 24.576 11.051 33.28 0.512l57.387-69.461c8.704-10.496 24.917-10.24 33.28 0.555l94.549 121.941c8.619 11.136 25.472 11.008 33.92-0.256l122.283-162.816c10.539-14.037 0.512-34.133-17.067-34.133zM405.333 618.667c35.328 0 64-28.629 64-64s-28.672-64-64-64c-35.328 0-64 28.629-64 64s28.672 64 64 64zM768 832h-512c-70.571 0-128-57.429-128-128v-512c0-70.571 57.429-128 128-128h512c70.571 0 128 57.429 128 128v512c0 70.571-57.429 128-128 128z" />
<glyph unicode="&#xe924;" glyph-name="pin-location" d="M512 405.333c-70.699 0-128 57.301-128 128s57.301 128 128 128c70.699 0 128-57.301 128-128s-57.301-128-128-128zM512 874.667c-188.203 0-341.333-153.131-341.333-341.333 0-274.773 303.616-494.805 316.544-504.064 7.424-5.291 16.085-7.936 24.789-7.936s17.365 2.645 24.789 7.936c12.928 9.259 316.544 229.291 316.544 504.064 0 188.203-153.131 341.333-341.333 341.333z" />
<glyph unicode="&#xe925;" glyph-name="pin-tilt" d="M872.209 536.666l-271.531 271.531c-16.683 16.683-43.691 16.683-60.331 0-16.683-16.64-16.683-43.648 0-60.331l10.069-10.069-261.504-221.227-35.2 35.2c-16.683 16.683-43.691 16.683-60.331 0-16.683-16.683-16.683-43.648 0-60.331l30.165-30.208 120.704-120.661-150.869-150.827c-16.683-16.683-16.683-43.691 0-60.331 8.32-8.363 19.243-12.501 30.165-12.501s21.845 4.139 30.165 12.501l150.869 150.827 150.827-150.827c8.363-8.363 19.243-12.501 30.165-12.501s21.845 4.139 30.165 12.501c16.683 16.64 16.683 43.648 0 60.331l-35.2 35.157 221.312 261.504 10.027-10.069c8.32-8.32 19.243-12.501 30.165-12.501s21.845 4.181 30.165 12.501c16.683 16.683 16.683 43.648 0 60.331z" />
<glyph unicode="&#xe926;" glyph-name="pin" d="M768 405.333h-49.792l-28.416 341.333h14.208c23.595 0 42.667 19.115 42.667 42.667s-19.072 42.667-42.667 42.667h-384c-23.595 0-42.667-19.115-42.667-42.667s19.072-42.667 42.667-42.667h14.208l-28.416-341.333h-49.792c-23.595 0-42.667-19.115-42.667-42.667s19.072-42.667 42.667-42.667h213.333v-213.333c0-23.552 19.072-42.667 42.667-42.667s42.667 19.115 42.667 42.667v213.333h213.333c23.595 0 42.667 19.115 42.667 42.667s-19.072 42.667-42.667 42.667z" />
<glyph unicode="&#xe927;" glyph-name="report" d="M544 458.249c0-17.707-14.336-32-32-32s-32 14.293-32 32l-21.333 151.893c0 29.44 23.893 53.333 53.333 53.333s53.333-23.893 53.333-53.333l-21.333-151.893zM512 234.249c-29.44 0-53.333 23.893-53.333 53.333s23.893 53.333 53.333 53.333c29.44 0 53.333-23.893 53.333-53.333s-23.893-53.333-53.333-53.333v0zM870.997 632.030l-174.976 174.976c-16 16-37.675 25.003-60.331 25.003h-247.381c-22.656 0-44.331-9.003-60.331-25.003l-174.976-174.976c-16-16-25.003-37.717-25.003-60.331v-247.424c0-22.613 9.003-44.331 25.003-60.331l174.976-174.933c16-16 37.675-25.003 60.331-25.003h247.381c22.656 0 44.331 9.003 60.331 25.003l174.976 174.933c16 16 25.003 37.717 25.003 60.331v247.424c0 22.613-9.003 44.331-25.003 60.331v0z" />
<glyph unicode="&#xe928;" glyph-name="sms" d="M701.751 562.876c5.035-3.797 13.909-7.765 26.581-11.819 12.715-4.096 23.125-8.491 31.232-13.184 19.84-11.435 29.781-27.179 29.781-47.275 0-16.043-6.059-28.629-18.176-37.803-12.075-9.131-28.672-13.739-49.749-13.739-14.891 0-28.331 2.688-40.405 8.021s-21.12 12.629-27.221 21.931c-6.101 9.301-9.131 19.968-9.131 32.043h44.331c0-9.813 2.56-17.067 7.637-21.717s13.355-6.997 24.789-6.997c7.296 0 13.099 1.579 17.323 4.736 4.267 3.157 6.357 7.595 6.357 13.269 0 6.485-2.304 11.52-6.869 15.147-4.565 3.584-12.587 7.339-24.149 11.221-11.477 3.84-20.907 7.595-28.203 11.221-23.808 11.648-35.669 27.733-35.669 48.128 0 10.155 2.944 19.115 8.875 26.88 5.931 7.808 14.293 13.867 25.173 18.176 10.837 4.309 22.997 6.485 36.523 6.485 13.184 0 25.003-2.347 35.456-7.040 10.453-4.736 18.603-11.435 24.405-20.139 5.76-8.661 8.704-18.603 8.704-29.781h-44.117c0 7.467-2.304 13.269-6.869 17.365-4.565 4.139-10.795 6.187-18.603 6.187-7.893 0-14.123-1.749-18.731-5.205-4.565-3.499-6.869-7.936-6.869-13.312 0-4.693 2.56-8.96 7.595-12.8v0zM611.255 441.574h-44.373v42.88l4.267 87.68-44.373-130.56h-29.184l-44.501 130.688 4.267-87.808v-42.88h-44.245v183.509h58.112l40.96-127.659 40.832 127.659h58.24v-183.509zM291.767 562.876c5.035-3.797 13.909-7.765 26.581-11.819 12.715-4.096 23.125-8.491 31.232-13.184 19.84-11.435 29.739-27.179 29.739-47.275 0-16.043-6.016-28.629-18.091-37.803-12.16-9.131-28.715-13.739-49.792-13.739-14.891 0-28.373 2.688-40.405 8.021-12.075 5.333-21.163 12.629-27.221 21.931-6.101 9.301-9.131 19.968-9.131 32.043h44.373c0-9.813 2.517-17.067 7.595-21.717 5.12-4.651 13.355-6.997 24.789-6.997 7.253 0 13.056 1.579 17.323 4.736 4.224 3.157 6.357 7.595 6.357 13.269 0 6.485-2.261 11.52-6.869 15.147-4.565 3.584-12.629 7.339-24.149 11.221-11.52 3.84-20.949 7.595-28.203 11.221-23.808 11.648-35.669 27.733-35.669 48.128 0 10.155 2.944 19.115 8.875 26.88 5.888 7.808 14.336 13.867 25.131 18.176 10.837 4.309 23.040 6.485 36.565 6.485 13.184 0 25.003-2.347 35.456-7.040 10.453-4.736 18.603-11.435 24.405-20.139 5.803-8.661 8.661-18.603 8.661-29.781h-44.075c0 7.467-2.304 13.269-6.869 17.365-4.565 4.139-10.795 6.187-18.603 6.187-7.893 0-14.165-1.749-18.688-5.205-4.565-3.499-6.869-7.936-6.869-13.312 0-4.693 2.475-8.96 7.552-12.8v0zM810.679 874.684h-597.333c-70.613 0-128-57.429-128-128v-631.168c0-25.984 15.488-49.195 39.509-59.136 7.936-3.285 16.256-4.907 24.533-4.907 16.597 0 32.896 6.528 45.184 18.773l121.771 121.771h494.336c70.571 0 128 57.387 128 128v426.667c0 70.571-57.429 128-128 128v0z" />
<glyph unicode="&#xe929;" glyph-name="star" d="M631.957 591.791l205.995-17.664c37.589-3.2 52.821-50.048 24.277-74.752l-156.501-135.424 47.189-201.515c8.576-36.736-31.232-65.707-63.573-46.208l-177.408 106.923-177.067-106.923c-32.341-19.499-72.192 9.472-63.616 46.208l46.976 201.515-156.501 135.424c-28.501 24.704-13.269 71.552 24.32 74.752l205.995 17.664 80.683 190.251c14.677 34.645 63.872 34.645 78.549 0l80.683-190.251z" />
<glyph unicode="&#xe92a;" glyph-name="text-message" d="M704 480c-29.44 0-53.333 23.893-53.333 53.333s23.893 53.333 53.333 53.333c29.44 0 53.333-23.893 53.333-53.333s-23.893-53.333-53.333-53.333zM512 480c-29.44 0-53.333 23.893-53.333 53.333s23.893 53.333 53.333 53.333c29.44 0 53.333-23.893 53.333-53.333s-23.893-53.333-53.333-53.333zM320 480c-29.44 0-53.333 23.893-53.333 53.333s23.893 53.333 53.333 53.333c29.44 0 53.333-23.893 53.333-53.333s-23.893-53.333-53.333-53.333zM810.667 874.667h-597.333c-70.571 0-128-57.429-128-128v-631.168c0-25.941 15.488-49.152 39.509-59.136 7.936-3.285 16.299-4.864 24.533-4.864 16.64 0 32.896 6.485 45.227 18.731l121.728 121.771h494.336c70.571 0 128 57.429 128 128v426.667c0 70.571-57.429 128-128 128z" />
<glyph unicode="&#xe92b;" glyph-name="tooltip-image" d="M724.834 303.083h-425.685c-17.749 0-27.733 20.437-16.853 34.432l84.907 109.269c8.363 10.752 24.576 11.008 33.28 0.469l57.387-69.419c8.704-10.539 24.96-10.283 33.28 0.512l94.549 121.941c8.619 11.136 25.515 11.008 33.963-0.256l122.24-162.816c10.539-14.037 0.512-34.133-17.067-34.133zM404.877 687.083c35.371 0 64-28.629 64-64 0-35.328-28.629-64-64-64-35.328 0-64 28.672-64 64 0 35.371 28.672 64 64 64zM810.679 879.851h-597.333c-70.613 0-128-57.429-128-128v-512c0-70.613 57.387-128 128-128h130.133l108.203-108.203c16.597-16.64 38.485-24.96 60.331-24.96 21.803 0 43.691 8.32 60.331 24.96l108.16 108.203h130.176c70.571 0 128 57.387 128 128v512c0 70.571-57.429 128-128 128z" />
<glyph unicode="&#xe92c;" glyph-name="tooltip-text" d="M726.199 533.312h-426.667c-23.595 0-42.667 19.115-42.667 42.667s19.072 42.667 42.667 42.667h426.667c23.595 0 42.667-19.115 42.667-42.667s-19.072-42.667-42.667-42.667zM512.866 362.645h-213.333c-23.595 0-42.667 19.115-42.667 42.667s19.072 42.667 42.667 42.667h213.333c23.595 0 42.667-19.115 42.667-42.667s-19.072-42.667-42.667-42.667zM810.637 879.851h-597.333c-70.571 0-128-57.429-128-128v-512c0-70.613 57.429-128 128-128h130.176l108.16-108.203c16.64-16.64 38.528-24.96 60.331-24.96 21.845 0 43.733 8.32 60.373 24.96l108.203 108.203h130.091c70.613 0 128 57.387 128 128v512c0 70.571-57.387 128-128 128z" />
<glyph unicode="&#xe92d;" glyph-name="trash" d="M810.624 704c11.733 0 21.333-9.557 21.333-21.333v0-21.333c0-23.552-19.115-42.667-42.667-42.667v0h-27.691l-27.008-428.715c-4.437-70.699-60.544-126.123-127.701-126.123v0h-190.037c-67.115 0-123.221 55.381-127.744 126.123v0l-26.965 428.715h-27.691c-23.595 0-42.667 19.115-42.667 42.667v0 21.333c0 11.776 9.557 21.333 21.333 21.333v0zM597.21 832c23.552 0 42.667-19.115 42.667-42.667v0-21.333c0-11.776-9.6-21.333-21.333-21.333v0h-213.333c-11.776 0-21.333 9.557-21.333 21.333v0 21.333c0 23.552 19.072 42.667 42.667 42.667v0z" />
<glyph unicode="&#xe92e;" glyph-name="verified" d="M697.749 510.852l-198.656-198.656c-8.363-8.363-19.243-12.501-30.165-12.501s-21.845 4.139-30.165 12.501l-100.011 99.968c-16.683 16.683-16.683 43.691 0 60.373 16.683 16.64 43.648 16.64 60.331 0l69.845-69.845 168.491 168.491c16.683 16.683 43.648 16.683 60.331 0s16.683-43.648 0-60.331zM892.864 484.399v219.179l-380.885 175.403-380.843-175.403v-219.179c-2.389-35.285-13.184-357.419 365.568-502.869l15.275-5.888 15.317 5.888c378.752 145.451 367.957 467.584 365.568 502.869z" />
<glyph unicode="&#xe92f;" glyph-name="view" d="M510.805 767.62c204.075 0 380.288-122.923 465.195-301.44 5.504-11.648 5.504-25.515 0-37.163-84.907-178.517-261.12-301.397-465.195-301.397s-380.245 122.88-465.195 301.355c-5.547 11.648-5.547 25.6 0 37.248 84.949 178.475 261.12 301.397 465.195 301.397zM512 661.338c-117.632 0-213.333-95.701-213.333-213.333s95.701-213.333 213.333-213.333c117.632 0 213.333 95.701 213.333 213.333s-95.701 213.333-213.333 213.333zM512 576.004c70.571 0 128-57.429 128-128s-57.429-128-128-128c-70.571 0-128 57.429-128 128s57.429 128 128 128z" />
<glyph unicode="&#xe930;" glyph-name="warning" d="M544 402.854c0-17.664-14.336-32-32-32s-32 14.336-32 32l-21.333 151.936c0 29.44 23.893 53.333 53.333 53.333s53.333-23.893 53.333-53.333l-21.333-151.936zM512 178.854c-29.44 0-53.333 23.893-53.333 53.333s23.893 53.333 53.333 53.333c29.44 0 53.333-23.893 53.333-53.333s-23.893-53.333-53.333-53.333v0zM907.179 192.081l-321.365 555.008c-32.811 56.789-114.816 56.789-147.627 0l-321.365-555.008c-32.939-56.875 8.107-128.085 73.856-128.085h642.645c65.749 0 106.795 71.211 73.856 128.085v0z" />
<glyph unicode="&#xe931;" glyph-name="add-camera-o" d="M469.803 789.329h212.864c12.395 0 24.071-5.357 32.112-14.557l3.216-4.174 72.619-107.264h62.72c68.050 0 123.881-53.4 127.782-120.491l0.218-7.509v-386.005c0-68.050-53.4-123.881-120.491-127.782l-7.509-0.218h-597.333c-68.050 0-123.881 53.4-127.782 120.491l-0.218 7.509v298.197c0 23.595 19.072 42.667 42.667 42.667 21.909 0 39.919-16.445 42.38-37.685l0.287-4.981v-298.197c0-21.83 16.482-39.908 37.693-42.379l4.974-0.288h597.333c21.87 0 39.913 16.518 42.379 37.701l0.287 4.966v386.005c0 21.83-16.482 39.908-37.693 42.379l-4.974 0.288h-85.333c-12.395 0-24.071 5.39-32.112 14.569l-3.216 4.161-72.619 107.264h-190.251c-23.595 0-42.667 19.115-42.667 42.667 0 21.87 16.445 39.913 37.685 42.379l4.981 0.287h212.864zM554.667 578.001c117.845 0 213.333-95.488 213.333-213.333 0-117.803-95.488-213.333-213.333-213.333s-213.333 95.531-213.333 213.333c0 117.845 95.488 213.333 213.333 213.333zM554.667 492.668c-70.571 0-128-57.429-128-128s57.429-128 128-128c70.571 0 128 57.429 128 128s-57.429 128-128 128zM170.667 917.333c21.909 0 39.919-16.482 42.38-37.693l0.287-4.974v-85.333h85.333c23.595 0 42.667-19.115 42.667-42.667 0-21.87-16.445-39.913-37.685-42.379l-4.981-0.287h-85.333v-85.333c0-23.552-19.072-42.667-42.667-42.667-21.909 0-39.919 16.482-42.38 37.693l-0.287 4.974v85.333h-85.333c-23.595 0-42.667 19.115-42.667 42.667 0 21.87 16.445 39.913 37.685 42.379l4.981 0.287h85.333v85.333c0 23.552 19.072 42.667 42.667 42.667z" />
<glyph unicode="&#xe932;" glyph-name="add-note-detailed-o" d="M255.979 832h256.213c23.595 0 42.667-19.115 42.667-42.667 0-21.87-16.445-39.913-37.685-42.379l-4.981-0.287h-213.547v-469.333h298.667c21.909 0 39.919-16.482 42.38-37.693l0.287-4.974v-56.235c0-25.941 12.629-49.408 31.488-61.952 0.213-0.128 0.427-0.256 0.597-0.384 4.693-3.072 10.069-4.693 15.445-6.272 5.888-1.621 12.459-2.603 19.84-2.859 12.672 0.768 24.875 5.419 35.072 13.909 14.45 12.023 23.405 29.608 25.216 49.069l0.341 7.379v313.515c0 23.595 19.115 42.667 42.667 42.667 21.909 0 39.919-16.445 42.38-37.685l0.287-4.981v-313.515c0-47.744-20.523-92.245-56.277-122.027-23.381-19.456-51.797-30.379-81.28-32.853l-2.677-0.651-2.741-0.459h-508.629c-84.893 0-154.442 62.735-158.84 141.414l-0.221 7.919v64c0 21.87 16.482 39.913 37.693 42.379l4.974 0.287h128v512c0 21.87 16.482 39.913 37.693 42.379l4.974 0.287h256.213zM554.645 192h-426.667v-21.333c0-33.325 29.533-60.789 67.032-63.738l6.696-0.262h368.341c-1.707 3.499-2.807 7.035-3.919 10.584l-1.756 5.33-0.853 2.389c-2.816 8.363-5.035 16.469-6.315 24.661-0.213 1.109-0.256 2.261-0.427 3.371-0.512 3.982-1.289 8.002-1.751 11.909l-0.382 5.755v21.333zM534.575 490.667c23.595 0 42.667-19.115 42.667-42.667 0-21.87-16.445-39.913-37.685-42.379l-4.981-0.287h-129.451c-23.595 0-42.667 19.115-42.667 42.667 0 21.87 16.445 39.913 37.685 42.379l4.981 0.287h129.451zM661.542 661.521c23.595 0 42.667-19.115 42.667-42.667 0-21.87-16.445-39.913-37.685-42.379l-4.981-0.287h-256.427c-23.552 0-42.667 19.115-42.667 42.667 0 21.87 16.482 39.913 37.693 42.379l4.974 0.287h256.427zM810.671 959.829c23.595 0 42.667-19.115 42.667-42.667v0-85.163h85.12c23.595 0 42.667-19.115 42.667-42.667s-19.072-42.667-42.667-42.667v0h-85.12v-85.163c0-23.552-19.072-42.667-42.667-42.667s-42.667 19.115-42.667 42.667v0 85.163h-85.12c-23.595 0-42.667 19.115-42.667 42.667s19.072 42.667 42.667 42.667v0h85.12v85.163c0 23.552 19.072 42.667 42.667 42.667z" />
<glyph unicode="&#xe933;" glyph-name="add-note-o" d="M512.192 832c23.595 0 42.667-19.115 42.667-42.667s-19.072-42.667-42.667-42.667v0h-213.547v-469.333h298.667c23.595 0 42.667-19.115 42.667-42.667v0-56.235c0-25.941 12.629-49.408 31.488-61.952 0.213-0.128 0.427-0.256 0.597-0.384 4.693-3.072 10.069-4.693 15.445-6.272 5.888-1.621 12.459-2.603 19.84-2.859 12.672 0.768 24.875 5.419 35.072 13.909 16.256 13.525 25.557 34.091 25.557 56.448v0 313.515c0 23.595 19.115 42.667 42.667 42.667 23.595 0 42.667-19.072 42.667-42.667v0-313.515c0-47.744-20.523-92.245-56.277-122.027-23.381-19.456-51.797-30.379-81.28-32.853-1.835-0.256-3.499-1.109-5.419-1.109v0h-508.629c-87.723 0-159.061 66.987-159.061 149.333v0 64c0 23.552 19.115 42.667 42.667 42.667v0h128v512c0 23.552 19.115 42.667 42.667 42.667v0zM554.645 192h-426.667v-21.333c0-35.285 33.109-64 73.728-64v0h368.341c-2.56 5.248-3.755 10.581-5.675 15.915v0l-0.853 2.389c-2.816 8.363-5.035 16.469-6.315 24.661-0.213 1.109-0.256 2.261-0.427 3.371-0.768 5.973-2.133 12.032-2.133 17.664v0 21.333zM810.671 959.829c23.595 0 42.667-19.115 42.667-42.667v0-85.163h85.12c23.595 0 42.667-19.115 42.667-42.667s-19.072-42.667-42.667-42.667v0h-85.12v-85.163c0-23.552-19.072-42.667-42.667-42.667s-42.667 19.115-42.667 42.667v0 85.163h-85.12c-23.595 0-42.667 19.115-42.667 42.667s19.072 42.667 42.667 42.667v0h85.12v85.163c0 23.552 19.072 42.667 42.667 42.667z" />
<glyph unicode="&#xe934;" glyph-name="add-o" d="M725.333 490.667h-170.667v170.667c0 23.552-19.072 42.667-42.667 42.667s-42.667-19.115-42.667-42.667v-170.667h-170.667c-23.595 0-42.667-19.115-42.667-42.667s19.072-42.667 42.667-42.667h170.667v-170.667c0-23.552 19.072-42.667 42.667-42.667s42.667 19.115 42.667 42.667v170.667h170.667c23.595 0 42.667 19.115 42.667 42.667s-19.072 42.667-42.667 42.667z" />
<glyph unicode="&#xe935;" glyph-name="add-person-o" d="M469.333 405.333h256c117.632 0 213.333-95.701 213.333-213.333 0-68.050-53.4-123.881-120.491-127.782l-7.509-0.218h-426.667c-70.571 0-128 57.429-128 128 0 114.536 90.731 208.281 204.094 213.136l9.24 0.197h256zM725.333 320h-256c-70.571 0-128-57.429-128-128 0-21.83 16.482-39.908 37.693-42.379l4.974-0.288h426.667c23.552 0 42.667 19.157 42.667 42.667 0 70.571-57.429 128-128 128zM597.333 832c94.123 0 170.667-76.544 170.667-170.667s-76.544-170.667-170.667-170.667c-94.123 0-170.667 76.544-170.667 170.667s76.544 170.667 170.667 170.667zM170.667 832c23.595 0 42.667-19.115 42.667-42.667v0-85.333h85.333c23.595 0 42.667-19.115 42.667-42.667s-19.072-42.667-42.667-42.667v0h-85.333v-85.333c0-23.552-19.072-42.667-42.667-42.667s-42.667 19.115-42.667 42.667v0 85.333h-85.333c-23.595 0-42.667 19.115-42.667 42.667s19.072 42.667 42.667 42.667v0h85.333v85.333c0 23.552 19.072 42.667 42.667 42.667zM597.333 746.667c-47.061 0-85.333-38.272-85.333-85.333s38.272-85.333 85.333-85.333c47.061 0 85.333 38.272 85.333 85.333s-38.272 85.333-85.333 85.333z" />
<glyph unicode="&#xe936;" glyph-name="added-o" d="M512 917.333c258.773 0 469.333-210.56 469.333-469.333s-210.56-469.333-469.333-469.333c-258.773 0-469.333 210.56-469.333 469.333s210.56 469.333 469.333 469.333zM512 832c-212.096 0-384-171.904-384-384s171.904-384 384-384c212.096 0 384 171.904 384 384s-171.904 384-384 384zM512 704c23.595 0 42.667-19.115 42.667-42.667v0-170.667h170.667c23.595 0 42.667-19.115 42.667-42.667s-19.072-42.667-42.667-42.667v0h-170.667v-170.667c0-23.552-19.072-42.667-42.667-42.667s-42.667 19.115-42.667 42.667v0 170.667h-170.667c-23.595 0-42.667 19.115-42.667 42.667s19.072 42.667 42.667 42.667v0h170.667v170.667c0 23.552 19.072 42.667 42.667 42.667z" />
<glyph unicode="&#xe937;" glyph-name="advert-o" d="M917.333 663.040h-128v64c0 35.328 28.715 64 64 64s64-28.672 64-64v-64zM704 172.373c0-35.285-28.715-64-64-64s-64 28.715-64 64v64.043c0 23.552-19.072 42.667-42.667 42.667h-256v446.336c0 36.181 29.44 65.621 65.664 65.621h375.424c-0.427-0.896-0.597-1.92-1.024-2.859-2.773-6.187-4.779-12.757-6.741-19.371-0.939-3.371-2.304-6.528-3.072-9.984-2.261-10.283-3.584-20.864-3.584-31.787v-554.667zM170.667 108.373c-35.285 0-64 28.715-64 64v21.376h127.787c0.085 0 0.128-0.043 0.213-0.043h256v-21.333c0-10.88 1.323-21.461 3.584-31.744 0.768-3.456 2.133-6.613 3.072-10.027 1.963-6.571 3.968-13.141 6.741-19.328 0.427-0.939 0.597-1.963 1.024-2.901h-334.421zM853.333 876.373h-510.336c-83.243 0-150.997-67.712-150.997-150.955v-446.336h-128c-23.595 0-42.667-19.115-42.667-42.667v-64.043c0-82.304 66.987-149.333 149.333-149.333h469.333c82.347 0 149.333 67.029 149.333 149.333v405.333h170.667c23.595 0 42.667 19.115 42.667 42.667v106.667c0 82.347-66.987 149.333-149.333 149.333v0z" />
<glyph unicode="&#xe938;" glyph-name="apartment-modern-o" d="M921.728 951.57c9.483-7.019 15.535-17.631 16.9-29.206l0.294-5.012v-896c0-21.87-16.445-39.913-37.685-42.379l-4.981-0.287h-768.256c-21.909 0-39.919 16.482-42.38 37.693l-0.287 4.974v469.333c0 21.87 16.445 39.913 37.685 42.379l4.981 0.287h298.667v256c0 17.144 10.226 32.42 25.645 39.126l4.776 1.748 426.923 128c12.971 3.84 26.965 1.365 37.717-6.656zM853.589 860.008l-341.589-102.4v-224.256h85.333c21.909 0 39.919-16.482 42.38-37.693l0.287-4.974v-426.667h213.589v795.989zM554.667 448.018h-384v-384h384v384zM457.254 234.685c23.595 0 42.667-19.115 42.667-42.667s-19.072-42.667-42.667-42.667v0h-189.184c-23.552 0-42.667 19.115-42.667 42.667s19.115 42.667 42.667 42.667v0zM268.070 362.685h189.184c23.595 0 42.667-19.115 42.667-42.667 0-21.87-16.445-39.913-37.685-42.379l-4.981-0.287h-189.184c-23.552 0-42.667 19.115-42.667 42.667 0 21.87 16.482 39.913 37.693 42.379l4.974 0.287h189.184z" />
<glyph unicode="&#xe939;" glyph-name="apartment-old-o" d="M853.99 957.683c13.013 4.48 27.435 2.389 38.656-5.632 11.179-8.021 17.877-20.949 17.877-34.731v0-853.333c0-23.552-19.115-42.667-42.667-42.667v0h-765.483c-23.595 0-42.667 19.115-42.667 42.667v0 260.053c-5.504-2.389-11.179-4.053-16.981-4.053-13.312 0-26.411 6.229-34.773 17.835-13.696 19.2-9.259 45.824 9.899 59.52v0l298.283 213.376c14.848 10.624 34.816 10.624 49.664 0v0l85.803-61.355v239.957c0 18.261 11.563 34.475 28.843 40.363v0zM340.966 523.55l-195.925-140.16v-276.736h391.893v276.736l-195.968 140.16zM825.19 857.63l-288.256-98.773v-270.549l127.147-90.965c19.157-13.696 23.595-40.32 9.899-59.52-8.363-11.605-21.461-17.835-34.773-17.835-5.803 0-11.435 1.664-16.939 4.053v0-217.387h202.923v750.976zM437.704 303.987c23.595 0 42.667-19.115 42.667-42.667s-19.072-42.667-42.667-42.667v0h-191.531c-23.595 0-42.667 19.115-42.667 42.667s19.072 42.667 42.667 42.667v0z" />
<glyph unicode="&#xe93a;" glyph-name="arrow-backward-o" d="M764.71 431.71c4.352 10.411 4.352 22.187 0 32.597-2.176 5.248-5.291 9.941-9.259 13.867l-194.773 194.816c-16.683 16.683-43.691 16.683-60.331 0-16.683-16.64-16.683-43.648 0-60.331l121.984-121.984h-323.669c-23.595 0-42.667-19.115-42.667-42.667s19.072-42.667 42.667-42.667h323.669l-121.984-122.027c-16.683-16.64-16.683-43.648 0-60.331 8.32-8.32 19.243-12.501 30.165-12.501s21.803 4.181 30.165 12.501l194.773 194.816c3.968 3.968 7.083 8.661 9.259 13.909z" />
<glyph unicode="&#xe93b;" glyph-name="arrow-down-o" d="M737.835 563.166c-16.725 16.725-43.819 16.725-60.544 0l-165.291-165.291-165.291 165.291c-16.725 16.725-43.819 16.725-60.544 0-16.768-16.725-16.768-43.819 0-60.544l195.541-195.584c8.363-8.363 19.328-12.544 30.293-12.544s21.931 4.181 30.293 12.544l195.541 195.584c16.768 16.725 16.768 43.819 0 60.544z" />
<glyph unicode="&#xe93c;" glyph-name="arrow-downward-o" d="M528.252 195.251c-10.411-4.309-22.187-4.309-32.597 0-5.205 2.176-9.941 5.333-13.867 9.259l-194.816 194.816c-16.683 16.64-16.683 43.648 0 60.331 16.64 16.64 43.648 16.64 60.331 0l121.984-122.027v323.669c0 23.595 19.115 42.667 42.667 42.667 23.595 0 42.667-19.072 42.667-42.667v-323.669l122.027 122.027c16.64 16.64 43.648 16.64 60.331 0 8.32-8.363 12.501-19.243 12.501-30.165s-4.181-21.845-12.501-30.165l-194.816-194.816c-3.968-3.925-8.661-7.083-13.909-9.259z" />
<glyph unicode="&#xe93d;" glyph-name="arrow-forward-o" d="M259.251 431.71c-4.352 10.411-4.352 22.187 0 32.597 2.176 5.248 5.291 9.941 9.216 13.867l194.816 194.816c16.683 16.683 43.691 16.683 60.331 0 16.683-16.64 16.683-43.648 0-60.331l-121.984-121.984h323.669c23.595 0 42.667-19.115 42.667-42.667s-19.072-42.667-42.667-42.667h-323.669l121.984-122.027c16.683-16.64 16.683-43.648 0-60.331-8.32-8.32-19.243-12.501-30.165-12.501s-21.803 4.181-30.165 12.501l-194.816 194.816c-3.925 3.968-7.040 8.661-9.216 13.909z" />
<glyph unicode="&#xe93e;" glyph-name="arrow-left-o" d="M461.333 448l165.291 165.291c16.725 16.725 16.725 43.819 0 60.544-16.768 16.768-43.819 16.768-60.587 0l-195.584-195.584c-16.683-16.725-16.683-43.776 0-60.501l195.584-195.584c8.363-8.363 19.328-12.544 30.293-12.544s21.931 4.181 30.293 12.544c16.725 16.725 16.725 43.819 0 60.544l-165.291 165.291z" />
<glyph unicode="&#xe93f;" glyph-name="arrow-right-o" d="M652.958 478.251l-195.413 195.413c-16.725 16.683-43.776 16.683-60.501 0-16.725-16.768-16.725-43.819 0-60.544l165.163-165.12-165.163-165.12c-16.725-16.725-16.725-43.776 0-60.544 8.363-8.32 19.328-12.501 30.251-12.501 10.965 0 21.931 4.181 30.251 12.501l195.413 195.413c16.725 16.725 16.725 43.776 0 60.501z" />
<glyph unicode="&#xe940;" glyph-name="arrow-up-o" d="M737.835 393.186l-195.541 195.541c-16.768 16.768-43.819 16.768-60.587 0l-195.541-195.541c-16.768-16.725-16.768-43.819 0-60.544 8.32-8.405 19.285-12.544 30.251-12.544s21.931 4.139 30.293 12.544l165.291 165.291 165.291-165.291c8.363-8.405 19.328-12.544 30.293-12.544s21.931 4.139 30.251 12.544c16.768 16.725 16.768 43.819 0 60.544z" />
<glyph unicode="&#xe941;" glyph-name="arrow-upward-o" d="M495.667 700.749c10.411 4.309 22.187 4.309 32.597 0 5.248-2.176 9.941-5.333 13.909-9.259l194.773-194.816c16.683-16.64 16.683-43.648 0-60.331-16.64-16.64-43.648-16.64-60.331 0l-121.984 122.027v-323.669c0-23.595-19.072-42.667-42.667-42.667-23.552 0-42.667 19.072-42.667 42.667v323.669l-122.027-122.027c-16.64-16.64-43.648-16.64-60.331 0-8.32 8.363-12.501 19.243-12.501 30.165s4.181 21.845 12.501 30.165l194.859 194.816c3.925 3.925 8.661 7.083 13.867 9.259z" />
<glyph unicode="&#xe942;" glyph-name="block-o" d="M750.959 269.397l-417.579 417.579c49.835 37.333 111.531 59.691 178.603 59.691 164.992 0 298.667-133.717 298.667-298.667 0-67.072-22.357-128.768-59.691-178.603zM213.316 448c0 67.072 22.4 128.768 59.733 178.603l417.579-417.579c-49.835-37.333-111.531-59.691-178.645-59.691-164.949 0-298.667 133.717-298.667 298.667zM511.983 832c-211.712 0-384-172.245-384-384 0-211.712 172.288-384 384-384 211.755 0 384 172.288 384 384 0 211.755-172.245 384-384 384z" />
<glyph unicode="&#xe943;" glyph-name="bookmark-o" d="M725.376 186.377l-189.696 126.464c-7.168 4.779-15.445 7.168-23.68 7.168s-16.512-2.389-23.68-7.168l-189.696-126.464v517.632c0 23.509 19.115 42.667 42.667 42.667h341.419c23.552 0 42.667-19.157 42.667-42.667v-517.632zM682.709 832.009h-341.419c-70.571 0-128-57.429-128-128v-597.333c0-15.744 8.661-30.208 22.528-37.632s30.763-6.613 43.819 2.133l232.363 154.88 232.363-154.88c7.125-4.779 15.403-7.168 23.68-7.168 6.912 0 13.824 1.664 20.139 5.035 13.867 7.424 22.528 21.888 22.528 37.632v597.333c0 70.571-57.429 128-128 128v0z" />
<glyph unicode="&#xe944;" glyph-name="brush-o" d="M823.915 720.29l-219.733-231.808c-5.888 9.941-13.184 19.755-22.571 29.141-9.387 9.429-19.456 16.64-29.525 22.528l232.021 219.605c11.051 10.453 28.288 10.197 39.040-0.555 10.752-10.795 11.051-27.947 0.768-38.912zM370.581 216.354c-42.752-25.899-88.021-36.096-143.957-37.163 16.256 25.771 25.643 53.504 34.048 78.549 15.019 44.629 25.856 72.917 57.131 91.563 11.691 6.955 24.277 10.197 36.693 11.264 19.413 0.341 43.733-5.632 59.648-21.504 1.024-1.024 1.621-1.963 2.517-2.944 2.133-2.56 4.523-4.864 6.272-7.808 20.352-34.091-1.707-81.195-52.352-111.957zM521.28 457.293c11.819-11.776 16.341-25.6 18.133-37.12l-43.947-46.336c-1.749 2.688-4.395 5.12-6.4 7.765-14.507 20.395-33.152 36.309-54.613 47.189l48.896 46.293c11.179-1.621 25.941-5.76 37.931-17.792zM883.477 819.533v0c-43.605 43.605-112.896 44.672-157.952 2.261l-401.408-379.904c-17.067-3.883-34.048-9.813-50.005-19.328-59.947-35.669-78.976-92.203-94.336-137.557-18.091-53.845-30.848-85.12-81.323-101.589-19.157-6.229-31.317-25.045-29.184-45.099s18.048-35.84 38.101-37.888c39.552-4.053 75.563-6.613 109.099-6.613 75.136 0 137.6 12.757 198.357 49.579 52.523 31.872 85.419 76.587 96.512 123.221l101.077 106.581c0.469 0.427 0.853 0.896 1.28 1.323l272.299 287.189c42.112 44.928 41.045 114.219-2.517 157.824z" />
<glyph unicode="&#xe945;" glyph-name="burger-menu-o" d="M170.667 276.501h682.667c23.595 0 42.667-19.115 42.667-42.667 0-21.87-16.445-39.913-37.685-42.379l-4.981-0.287h-682.667c-23.595 0-42.667 19.115-42.667 42.667 0 21.87 16.445 39.913 37.685 42.379l4.981 0.287h682.667zM170.667 490.667h682.667c23.595 0 42.667-19.115 42.667-42.667 0-21.87-16.445-39.913-37.685-42.379l-4.981-0.287h-682.667c-23.595 0-42.667 19.115-42.667 42.667 0 21.87 16.445 39.913 37.685 42.379l4.981 0.287h682.667zM853.333 704.832c23.595 0 42.667-19.115 42.667-42.667s-19.072-42.667-42.667-42.667v0h-682.667c-23.595 0-42.667 19.115-42.667 42.667s19.072 42.667 42.667 42.667v0z" />
<glyph unicode="&#xe946;" glyph-name="cached-o" d="M197.299 603.076c8.363 8.491 22.016 8.491 30.379 0v0l117.632-119.381c13.227-13.483 3.669-36.267-15.232-36.267v0h-74.923v-0.896c0-38.528 8.533-75.733 25.387-110.72 58.112-120.789 201.045-176.512 325.376-126.848 21.888 8.747 46.72-1.92 55.467-23.765 2.091-5.205 3.072-10.539 3.072-15.829 0-16.939-10.155-32.981-26.88-39.637-165.845-66.261-356.395 7.979-433.92 169.088-22.571 46.805-33.749 97.664-33.835 148.608v0h-74.923c-18.944 0-28.501 22.784-15.189 36.267v0zM386.415 764.813c165.845 66.261 356.437-7.979 433.963-169.088 22.4-46.592 33.792-96.299 33.792-147.712v0-0.853h74.923c18.944 0 28.501-22.827 15.189-36.309v0l-117.589-119.381c-8.363-8.448-22.016-8.448-30.379 0v0l-117.589 119.381c-13.269 13.483-3.712 36.309 15.189 36.309v0h74.923v0.853c0 38.528-8.533 75.733-25.387 110.72-58.112 120.789-201.045 176.512-325.376 126.848-21.888-8.789-46.72 1.92-55.467 23.765-8.661 21.845 1.92 46.72 23.808 55.467z" />
<glyph unicode="&#xe947;" glyph-name="call-end-o" d="M512.934 534.153c55.808 0 111.531-6.741 165.504-20.352 26.667-6.656 45.355-30.592 45.355-58.197v-84.395c0-4.693 3.84-8.533 8.491-8.533h139.093c8.107 0 8.533 14.379 8.533 17.237v52.437c0 44.16-26.283 84.267-66.987 102.229-191.147 84.267-410.411 84.523-601.728 0.597-40.747-17.877-67.115-57.984-67.115-102.187v-52.992c0-2.901 0.427-17.323 8.533-17.323h139.093c4.651 0 8.491 3.84 8.491 8.533v84.139c0 27.691 18.731 51.627 45.483 58.24 54.827 13.739 111.061 20.565 167.253 20.565zM871.377 277.342h-139.093c-51.755 0-93.824 42.112-93.824 93.867v64.341c-82.731 17.792-169.429 17.749-252.928-0.299v-64.043c0-51.755-42.069-93.867-93.824-93.867h-139.093c-53.504 0-93.867 44.117-93.867 102.656v52.992c0 78.037 46.379 148.864 118.229 180.352 213.12 93.525 457.472 93.184 670.336-0.683 71.637-31.616 117.931-102.357 117.931-180.309v-52.437c0-58.453-40.363-102.571-93.867-102.571z" />
<glyph unicode="&#xe948;" glyph-name="camera-o" d="M619.435 832c28.331 0 54.869-14.080 70.741-37.589v0l61.056-90.411h102.101c70.699 0 128-57.301 128-128v0-384c0-70.699-57.301-128-128-128v0h-682.667c-70.699 0-128 57.301-128 128v0 384c0 70.699 57.301 128 128 128v0h102.101l61.056 90.411c15.872 23.509 42.368 37.589 70.741 37.589v0zM624.043 746.667h-213.547l-73.771-109.227c-7.979-11.733-21.205-18.773-35.413-18.773v0h-130.645c-23.595 0-42.667-19.115-42.667-42.667v0-384c0-23.552 19.072-42.667 42.667-42.667v0h682.667c23.595 0 42.667 19.115 42.667 42.667v0 384c0 23.552-19.072 42.667-42.667 42.667v0h-120.107c-14.165 0-27.477 7.040-35.413 18.773v0l-73.771 109.227zM512 618.667c117.845 0 213.333-95.531 213.333-213.333s-95.488-213.333-213.333-213.333c-117.845 0-213.333 95.531-213.333 213.333s95.488 213.333 213.333 213.333zM512 533.333c-70.571 0-128-57.429-128-128s57.429-128 128-128c70.571 0 128 57.429 128 128s-57.429 128-128 128z" />
<glyph unicode="&#xe949;" glyph-name="car-o" d="M166.554 234.752v65.664l3.072-0.384c42.837-5.419 86.443-9.899 129.493-13.269 0.853-0.043 1.707-0.085 2.56-0.085 16.555 0 30.549 12.715 31.872 29.483 1.365 17.621-11.776 33.024-29.397 34.389-42.112 3.328-84.651 7.68-126.933 13.056l-10.667 1.195v20.523c0 14.421 1.835 28.843 4.523 43.051 113.152-14.251 227.029-21.376 340.992-21.376 113.835 0 227.755 7.168 340.864 21.376 2.688-14.251 4.523-28.629 4.523-43.051v-20.523l-11.392-1.237c-41.813-5.333-84.309-9.685-126.379-13.013-17.621-1.365-30.805-16.768-29.44-34.389 1.365-16.768 15.36-29.483 31.872-29.483 0.853 0 1.749 0 2.56 0.085 43.093 3.371 86.613 7.851 128.981 13.227l3.797 0.427v-65.621c-229.504-22.912-461.483-22.912-690.901-0.043v0zM288.239 671.445c10.027 18.816 31.573 31.019 54.869 31.019h337.835c23.296 0 44.8-12.203 54.912-31.061l85.675-160.64c-205.568-24.235-413.568-24.192-619.051 0l85.76 160.683zM1018.65 545.877c-11.52 20.565-37.589 27.947-58.069 16.512l-54.059-30.165c-0.597 1.109-0.981 2.261-1.536 3.371l-93.867 175.915c-25.003 47.061-74.88 76.288-130.176 76.288h-337.835c-55.296 0-105.173-29.227-130.176-76.245l-93.909-176c-0.597-1.067-0.981-2.219-1.493-3.285l-54.101 30.123c-20.437 11.477-46.549 4.096-58.027-16.512-11.477-20.565-4.053-46.592 16.512-58.027l66.731-37.163c-4.608-21.547-7.424-43.435-7.424-65.365v-189.312h0.469c0-3.925 0-7.936 1.024-11.605v-64.427h-0.128v-53.419c0-29.483 23.936-53.376 53.419-53.376 29.525 0 53.419 23.893 53.419 53.376v53.419h-0.043v26.837c107.136-9.685 214.741-14.805 322.432-14.805s215.424 5.12 322.603 14.805v-26.837h-0.128v-53.419c0-29.483 23.936-53.376 53.419-53.376 29.525 0 53.419 23.893 53.419 53.376v53.419h-0.043v67.2c0.64 2.859 0.811 5.803 0.811 8.832h0.896v189.312c0 21.931-2.816 43.819-7.381 65.365l66.688 37.163c20.565 11.435 27.989 37.461 16.555 58.027v0z" />
<glyph unicode="&#xe94a;" glyph-name="category-o" d="M842.667 288.832c29.44 0 53.333-23.893 53.333-53.333s-23.893-53.333-53.333-53.333c-29.44 0-53.333 23.893-53.333 53.333s23.893 53.333 53.333 53.333zM170.667 278.165h490.667c23.595 0 42.667-19.115 42.667-42.667 0-21.87-16.445-39.913-37.685-42.379l-4.981-0.287h-490.667c-23.595 0-42.667 19.115-42.667 42.667 0 21.87 16.445 39.913 37.685 42.379l4.981 0.287h490.667zM842.667 502.165c29.44 0 53.333-23.893 53.333-53.333s-23.893-53.333-53.333-53.333c-29.44 0-53.333 23.893-53.333 53.333s23.893 53.333 53.333 53.333zM661.333 491.499c23.595 0 42.667-19.115 42.667-42.667 0-21.87-16.445-39.913-37.685-42.379l-4.981-0.287h-490.667c-23.595 0-42.667 19.115-42.667 42.667 0 21.87 16.445 39.913 37.685 42.379l4.981 0.287h490.667zM842.667 715.499c29.44 0 53.333-23.893 53.333-53.333s-23.893-53.333-53.333-53.333c-29.44 0-53.333 23.893-53.333 53.333s23.893 53.333 53.333 53.333zM661.333 704.832c23.595 0 42.667-19.115 42.667-42.667 0-21.87-16.445-39.913-37.685-42.379l-4.981-0.287h-490.667c-23.595 0-42.667 19.115-42.667 42.667 0 21.87 16.445 39.913 37.685 42.379l4.981 0.287h490.667z" />
<glyph unicode="&#xe94b;" glyph-name="check-o" d="M457.207 276.126c-10.923 0-21.845 4.139-30.165 12.459l-123.776 123.776c-16.683 16.64-16.683 43.648 0 60.331 16.64 16.683 43.648 16.683 60.331 0l93.611-93.568 215.68 215.68c16.64 16.64 43.648 16.64 60.331 0 16.64-16.683 16.64-43.691 0-60.331l-245.845-245.888c-8.32-8.32-19.243-12.459-30.165-12.459z" />
<glyph unicode="&#xe94c;" glyph-name="checked-o" d="M512 919.061c258.773 0 469.333-210.56 469.333-469.333s-210.56-469.333-469.333-469.333c-258.773 0-469.333 210.56-469.333 469.333s210.56 469.333 469.333 469.333zM512 833.728c-212.096 0-384-171.904-384-384s171.904-384 384-384c212.096 0 384 171.904 384 384s-171.904 384-384 384zM733.218 594.782c16.64-16.64 16.64-43.648 0-60.331l-245.845-245.845c-8.32-8.32-19.243-12.501-30.165-12.501s-21.845 4.181-30.165 12.501l-123.776 123.733c-16.683 16.64-16.683 43.691 0 60.331 16.64 16.683 43.648 16.683 60.331 0l93.611-93.568 215.68 215.68c16.64 16.683 43.648 16.683 60.331 0z" />
<glyph unicode="&#xe94d;" glyph-name="circle-add-o" d="M512 874.667c235.264 0 426.667-191.403 426.667-426.667s-191.403-426.667-426.667-426.667c-235.264 0-426.667 191.403-426.667 426.667s191.403 426.667 426.667 426.667zM512 789.333c-188.501 0-341.333-152.832-341.333-341.333s152.832-341.333 341.333-341.333c188.501 0 341.333 152.832 341.333 341.333s-152.832 341.333-341.333 341.333zM512.009 671.701c23.595 0 42.667-19.115 42.667-42.667v0-138.368h138.325c23.595 0 42.667-19.115 42.667-42.667s-19.072-42.667-42.667-42.667v0h-138.325v-138.368c0-23.552-19.072-42.667-42.667-42.667s-42.667 19.115-42.667 42.667v0 138.368h-138.325c-23.595 0-42.667 19.115-42.667 42.667s19.072 42.667 42.667 42.667v0h138.325v138.368c0 23.552 19.072 42.667 42.667 42.667z" />
<glyph unicode="&#xe94e;" glyph-name="circle-check-o" d="M512 874.667c235.264 0 426.667-191.403 426.667-426.667s-191.403-426.667-426.667-426.667c-235.264 0-426.667 191.403-426.667 426.667s191.403 426.667 426.667 426.667zM512 789.333c-188.501 0-341.333-152.832-341.333-341.333s152.832-341.333 341.333-341.333c188.501 0 341.333 152.832 341.333 341.333s-152.832 341.333-341.333 341.333zM642.21 584.832c16.683 16.683 43.648 16.683 60.331 0s16.683-43.648 0-60.331v0l-213.333-213.333c-8.32-8.32-19.243-12.501-30.165-12.501s-21.845 4.181-30.165 12.501v0l-107.435 107.392c-16.64 16.64-16.64 43.648 0 60.331 16.683 16.683 43.691 16.683 60.331 0v0l77.269-77.227z" />
<glyph unicode="&#xe94f;" glyph-name="circle-error-o" d="M584.363 868.651c176.64-29.184 319.104-171.648 348.288-348.245 48.213-291.584-201.472-541.269-493.013-493.056-176.64 29.184-319.104 171.648-348.288 348.288-48.213 291.541 201.472 541.227 493.013 493.013zM512 789.333c-188.501 0-341.333-152.832-341.333-341.333s152.832-341.333 341.333-341.333c188.501 0 341.333 152.832 341.333 341.333s-152.832 341.333-341.333 341.333zM512 330.667c29.44 0 53.333-23.893 53.333-53.333s-23.893-53.333-53.333-53.333c-29.44 0-53.333 23.893-53.333 53.333s23.893 53.333 53.333 53.333zM512 676.958c27.6 0 50.325-21 53.058-47.883l0.276-5.451-21.333-175.616c0-17.664-14.336-32-32-32-16.192 0-29.588 12.046-31.708 27.66l-0.292 4.34-21.333 175.616c0 29.44 23.893 53.333 53.333 53.333z" />
<glyph unicode="&#xe950;" glyph-name="circle-help-o" d="M512 874.667c235.264 0 426.667-191.403 426.667-426.667s-191.403-426.667-426.667-426.667c-235.264 0-426.667 191.403-426.667 426.667s191.403 426.667 426.667 426.667zM512 789.333c-188.501 0-341.333-152.832-341.333-341.333s152.832-341.333 341.333-341.333c188.501 0 341.333 152.832 341.333 341.333s-152.832 341.333-341.333 341.333zM512 288.998c29.44 0 53.333-23.893 53.333-53.333s-23.893-53.333-53.333-53.333c-29.44 0-53.333 23.893-53.333 53.333s23.893 53.333 53.333 53.333zM512 711.603c84.437 0 153.131-68.693 153.131-153.131 1.28-49.451-23.467-93.952-73.643-131.157-30.763-22.827-36.821-36.693-36.821-52.992 0-23.552-19.072-42.667-42.667-42.667s-42.667 19.115-42.667 42.667c0 60.885 38.144 96.939 71.339 121.557 35.84 26.539 39.509 47.787 39.125 61.483 0 38.485-30.421 68.907-67.797 68.907-37.419 0-67.84-30.421-67.84-67.797 0-23.595-19.072-42.667-42.667-42.667s-42.667 19.072-42.667 42.667c0 84.437 68.736 153.131 153.173 153.131z" />
<glyph unicode="&#xe951;" glyph-name="circle-history-o" d="M512 874.667c235.264 0 426.667-191.403 426.667-426.667s-191.403-426.667-426.667-426.667c-235.264 0-426.667 191.403-426.667 426.667s191.403 426.667 426.667 426.667zM512 789.333c-188.501 0-341.333-152.832-341.333-341.333s152.832-341.333 341.333-341.333c188.501 0 341.333 152.832 341.333 341.333s-152.832 341.333-341.333 341.333zM499.499 640.239c23.595 0 42.667-19.115 42.667-42.667v0-148.907l105.003-76.245c11.477-8.32 17.579-21.376 17.579-34.56 0-8.704-2.645-17.451-8.107-25.003-8.405-11.52-21.376-17.621-34.603-17.621-8.661 0-17.451 2.645-25.045 8.149v0l-122.581 89.003c-0.768 0.597-1.067 1.536-1.835 2.133-3.499 2.944-6.272 6.443-8.747 10.368-0.853 1.451-2.091 2.603-2.773 4.139-2.56 5.504-4.224 11.435-4.224 17.877v0 170.667c0 23.552 19.072 42.667 42.667 42.667z" />
<glyph unicode="&#xe952;" glyph-name="circle-info-o" d="M512 874.667c235.264 0 426.667-191.403 426.667-426.667s-191.403-426.667-426.667-426.667c-235.264 0-426.667 191.403-426.667 426.667s191.403 426.667 426.667 426.667zM512 789.333c-188.501 0-341.333-152.832-341.333-341.333s152.832-341.333 341.333-341.333c188.501 0 341.333 152.832 341.333 341.333s-152.832 341.333-341.333 341.333zM512 490.667c21.909 0 39.919-16.482 42.38-37.693l0.287-4.974v-170.667c0-23.552-19.072-42.667-42.667-42.667-21.909 0-39.919 16.482-42.38 37.693l-0.287 4.974v170.667c0 23.552 19.072 42.667 42.667 42.667zM474.458 656.23c19.627 20.053 55.467 20.053 75.093 0 10.24-9.813 15.787-23.467 15.787-37.547s-5.547-27.733-15.787-37.547c-9.856-10.24-23.467-15.787-37.547-15.787s-27.776 5.547-37.547 15.787c-10.24 9.813-15.787 23.467-15.787 37.547s5.547 27.733 15.787 37.547z" />
<glyph unicode="&#xe953;" glyph-name="circle-night-mode-o" d="M512 874.667c235.264 0 426.667-191.403 426.667-426.667s-191.403-426.667-426.667-426.667c-235.264 0-426.667 191.403-426.667 426.667s191.403 426.667 426.667 426.667zM512 789.333c-188.501 0-341.333-152.832-341.333-341.333s152.832-341.333 341.333-341.333c188.501 0 341.333 152.832 341.333 341.333s-152.832 341.333-341.333 341.333zM577.673 682.24c-6.613 11.477 5.077 25.429 17.493 20.864 113.451-41.643 190.379-158.933 169.387-290.816-17.536-110.251-106.539-199.253-216.789-216.832-131.925-21.035-249.259 55.893-290.901 169.344-4.523 12.459 9.429 24.149 20.949 17.536 40.576-23.424 89.301-34.219 141.013-27.008 95.275 13.355 172.501 90.581 185.856 185.856 7.253 51.669-3.584 100.437-27.008 141.056z" />
<glyph unicode="&#xe954;" glyph-name="circle-remove-o" d="M512 874.667c235.264 0 426.667-191.403 426.667-426.667s-191.403-426.667-426.667-426.667c-235.264 0-426.667 191.403-426.667 426.667s191.403 426.667 426.667 426.667zM512 789.333c-188.501 0-341.333-152.832-341.333-341.333s152.832-341.333 341.333-341.333c188.501 0 341.333 152.832 341.333 341.333s-152.832 341.333-341.333 341.333zM353.835 606.165c16.683 16.683 43.648 16.683 60.331 0v0l97.835-97.835 97.835 97.835c16.683 16.683 43.648 16.683 60.331 0s16.683-43.648 0-60.331v0l-97.835-97.835 97.835-97.835c16.683-16.683 16.683-43.648 0-60.331-8.32-8.32-19.243-12.501-30.165-12.501s-21.845 4.181-30.165 12.501v0l-97.835 97.835-97.835-97.835c-8.32-8.32-19.243-12.501-30.165-12.501s-21.845 4.181-30.165 12.501c-16.683 16.683-16.683 43.648 0 60.331v0l97.835 97.835-97.835 97.835c-16.683 16.683-16.683 43.648 0 60.331z" />
<glyph unicode="&#xe955;" glyph-name="close-o" d="M571.499 448l211.157 211.2c16.683 16.64 16.683 43.648 0 60.331-16.64 16.64-43.648 16.64-60.331 0l-211.157-211.2-211.2 211.2c-16.683 16.64-43.691 16.64-60.331 0-16.683-16.683-16.683-43.691 0-60.331l211.2-211.2-211.2-211.2c-16.683-16.64-16.683-43.648 0-60.331 8.32-8.32 19.243-12.501 30.165-12.501s21.803 4.181 30.165 12.501l211.2 211.2 211.157-211.2c8.32-8.32 19.243-12.501 30.165-12.501s21.845 4.181 30.165 12.501c16.683 16.683 16.683 43.691 0 60.331l-211.157 211.2z" />
<glyph unicode="&#xe956;" glyph-name="community-o" d="M368.256 486.669c156.032 0 282.965-126.933 282.965-282.923v0-54.4h202.112v82.005c0 77.525-63.104 140.587-140.629 140.587v0 0.085l-2.091-0.085c-8.491-0.384-16.341 4.096-20.523 11.563-10.368 18.517-22.357 36.011-35.669 52.352-4.011 4.907-1.707 12.245 4.395 13.909 17.323 4.565 35.2 7.509 53.888 7.509v0h0.171l9.293-0.195c120.21-4.969 216.499-104.295 216.499-225.725v0-124.672c0-23.595-19.072-42.667-42.667-42.667v0h-287.445c-23.595 0-42.667 19.072-42.667 42.667v0 97.067c0 108.928-88.661 197.589-197.632 197.589s-197.589-88.661-197.589-197.589v0-54.4l267.093 0.043c23.595 0 42.752-19.157 42.752-42.752s-19.157-42.752-42.752-42.752v0h-42.709v0.128h-267.051c-23.595 0-42.667 19.072-42.667 42.667v0 97.067c0 155.989 126.933 282.923 282.923 282.923zM711.71 798.626c70.571 0 128-57.429 128-128s-57.429-128-128-128c-70.571 0-128 57.429-128 128s57.429 128 128 128zM368.252 828.147c70.571 0 128-57.429 128-128s-57.429-128-128-128c-70.571 0-128 57.429-128 128s57.429 128 128 128zM711.71 713.293c-23.595 0-42.667-19.115-42.667-42.667s19.072-42.667 42.667-42.667c23.595 0 42.667 19.115 42.667 42.667s-19.072 42.667-42.667 42.667zM368.252 742.814c-23.552 0-42.667-19.115-42.667-42.667s19.115-42.667 42.667-42.667c23.595 0 42.667 19.115 42.667 42.667s-19.072 42.667-42.667 42.667z" />
<glyph unicode="&#xe957;" glyph-name="copy-o" d="M853.333 362.645c0-23.509-19.115-42.667-42.667-42.667h-85.333v213.333c0 70.571-57.429 128-128 128h-213.333v85.376c0 23.509 19.115 42.667 42.667 42.667h384c23.552 0 42.667-19.157 42.667-42.667v-384.043zM640 149.312c0-23.509-19.115-42.667-42.667-42.667h-384c-23.552 0-42.667 19.157-42.667 42.667v384c0 23.509 19.115 42.667 42.667 42.667h384c23.552 0 42.667-19.157 42.667-42.667v-384zM810.667 874.688h-384c-70.571 0-128-57.429-128-128v-85.376h-85.333c-70.571 0-128-57.429-128-128v-384c0-70.571 57.429-128 128-128h384c70.571 0 128 57.429 128 128v85.333h85.333c70.571 0 128 57.429 128 128v384.043c0 70.571-57.429 128-128 128v0z" />
<glyph unicode="&#xe958;" glyph-name="crop-4-3-o" d="M256 661.333c-23.552 0-42.667-19.157-42.667-42.667v-341.333c0-23.509 19.115-42.667 42.667-42.667h512c23.552 0 42.667 19.157 42.667 42.667v341.333c0 23.509-19.115 42.667-42.667 42.667h-512zM768 149.333h-512c-70.571 0-128 57.429-128 128v341.333c0 70.571 57.429 128 128 128h512c70.571 0 128-57.429 128-128v-341.333c0-70.571-57.429-128-128-128v0z" />
<glyph unicode="&#xe959;" glyph-name="crop-o" d="M256 917.333c23.595 0 42.667-19.115 42.667-42.667v0-597.333c0-23.509 19.115-42.667 42.667-42.667v0h597.333c23.595 0 42.667-19.115 42.667-42.667s-19.072-42.667-42.667-42.667v0h-128v-128c0-23.552-19.072-42.667-42.667-42.667s-42.667 19.115-42.667 42.667v0 128h-384c-70.571 0-128 57.429-128 128v0 384h-128c-23.595 0-42.667 19.115-42.667 42.667s19.072 42.667 42.667 42.667v0h128v128c0 23.552 19.072 42.667 42.667 42.667zM682.667 746.667c70.571 0 128-57.429 128-128v0-298.667h-85.333v298.667c0 23.509-19.115 42.667-42.667 42.667v0h-298.667v85.333z" />
<glyph unicode="&#xe95a;" glyph-name="crop-square-o" d="M298.667 704c-23.552 0-42.667-19.157-42.667-42.667v-426.667c0-23.509 19.115-42.667 42.667-42.667h426.667c23.552 0 42.667 19.157 42.667 42.667v426.667c0 23.509-19.115 42.667-42.667 42.667h-426.667zM725.333 106.667h-426.667c-70.571 0-128 57.429-128 128v426.667c0 70.571 57.429 128 128 128h426.667c70.571 0 128-57.429 128-128v-426.667c0-70.571-57.429-128-128-128v0z" />
<glyph unicode="&#xe95b;" glyph-name="declined-o" d="M512 917.333c258.773 0 469.333-210.56 469.333-469.333s-210.56-469.333-469.333-469.333c-258.773 0-469.333 210.56-469.333 469.333s210.56 469.333 469.333 469.333zM512 832c-212.096 0-384-171.904-384-384s171.904-384 384-384c212.096 0 384 171.904 384 384s-171.904 384-384 384zM331.012 629.035c16.64 16.64 43.648 16.64 60.331 0v0l120.661-120.704 120.661 120.704c16.683 16.64 43.691 16.64 60.331 0 16.683-16.64 16.683-43.691 0-60.331v0l-120.661-120.704 120.661-120.704c16.683-16.64 16.683-43.691 0-60.331-8.32-8.32-19.243-12.501-30.165-12.501s-21.845 4.181-30.165 12.501v0l-120.661 120.704-120.661-120.704c-8.32-8.32-19.243-12.501-30.165-12.501s-21.845 4.181-30.165 12.501c-16.683 16.64-16.683 43.691 0 60.331v0l120.661 120.704-120.661 120.704c-16.683 16.64-16.683 43.691 0 60.331z" />
<glyph unicode="&#xe95c;" glyph-name="dejavu-o" d="M529.256 832c211.755 0 384-172.288 384-384s-172.245-384-384-384c-87.467 0-173.056 30.208-240.939 84.992-18.347 14.805-21.248 41.685-6.443 59.989 14.763 18.347 41.643 21.205 59.989 6.443 53.589-43.221 118.4-66.091 187.392-66.091 164.651 0 298.667 133.973 298.667 298.667s-134.016 298.667-298.667 298.667c-163.328 0-296.32-131.883-298.453-294.784v0h70.613c18.944 0 28.501-22.827 15.189-36.309v0l-118.699-120.107c-8.363-8.448-21.973-8.448-30.336 0v0l-118.699 120.107c-13.312 13.483-3.797 36.309 15.189 36.309v0h81.408c2.133 209.963 173.355 380.117 383.787 380.117zM516.754 640.252c23.595 0 42.667-19.115 42.667-42.667v0-148.907l105.003-76.245c11.477-8.363 17.579-21.376 17.579-34.56 0-8.704-2.645-17.451-8.107-25.003-8.405-11.52-21.376-17.621-34.603-17.621-8.661 0-17.451 2.645-25.045 8.149v0l-122.581 89.003c-0.768 0.597-1.067 1.536-1.835 2.133-3.499 2.944-6.272 6.443-8.747 10.325-0.853 1.493-2.091 2.645-2.773 4.181-2.56 5.461-4.224 11.435-4.224 17.877v0 170.667c0 23.552 19.072 42.667 42.667 42.667z" />
<glyph unicode="&#xe95d;" glyph-name="dialog-o" d="M431.71 747.981c-120.405 0-218.368-97.963-218.368-218.368 0-114.475 93.099-207.616 207.573-207.616h29.056c23.552 0 42.667-19.115 42.667-42.667v-91.136c8.32 5.504 16.64 11.008 25.003 16.469 50.517 33.323 101.12 66.645 151.339 100.608 96.64 65.323 141.696 136.619 141.696 224.341 0 120.405-97.963 218.368-218.368 218.368h-160.597zM449.971 66.167c-6.912 0-13.824 1.664-20.181 5.035-13.824 7.424-22.485 21.888-22.485 37.632v128.128c-155.221 7.168-279.296 135.68-279.296 292.651 0 167.467 136.235 303.701 303.701 303.701h160.597c167.424 0 303.701-136.235 303.701-303.701 0-116.992-58.624-213.547-179.285-295.083-50.475-34.091-101.291-67.584-152.149-101.12-30.379-20.011-60.715-39.979-91.008-60.117-7.125-4.736-15.36-7.125-23.595-7.125v0z" />
<glyph unicode="&#xe95e;" glyph-name="dice-o" d="M469.333 874.667h341.333c68.050 0 123.881-53.4 127.782-120.491l0.218-7.509v-341.333c0-68.050-53.4-123.881-120.491-127.782l-7.509-0.218h-128v-128c0-68.050-53.4-123.881-120.491-127.782l-7.509-0.218h-341.333c-68.050 0-123.881 53.4-127.782 120.491l-0.218 7.509v341.333c0 68.050 53.4 123.881 120.491 127.782l7.509 0.218h128v128c0 68.050 53.4 123.881 120.491 127.782l7.509 0.218h341.333zM554.667 533.333h-341.333c-21.87 0-39.913-16.518-42.379-37.701l-0.287-4.966v-341.333c0-21.83 16.482-39.908 37.693-42.379l4.974-0.288h341.333c21.87 0 39.913 16.518 42.379 37.701l0.287 4.966v341.333c0 23.509-19.115 42.667-42.667 42.667zM298.667 288c29.44 0 53.333-23.893 53.333-53.333s-23.893-53.333-53.333-53.333c-29.44 0-53.333 23.893-53.333 53.333s23.893 53.333 53.333 53.333zM469.333 458.667c29.44 0 53.333-23.893 53.333-53.333s-23.893-53.333-53.333-53.333c-29.44 0-53.333 23.893-53.333 53.333s23.893 53.333 53.333 53.333zM810.667 789.333h-341.333c-21.87 0-39.913-16.518-42.379-37.701l-0.287-4.966v-128h128c68.050 0 123.881-53.4 127.782-120.491l0.218-7.509v-128h128c21.87 0 39.913 16.518 42.379 37.701l0.287 4.966v341.333c0 23.509-19.115 42.667-42.667 42.667zM725.333 714.667c29.44 0 53.333-23.893 53.333-53.333s-23.893-53.333-53.333-53.333c-29.44 0-53.333 23.893-53.333 53.333s23.893 53.333 53.333 53.333z" />
<glyph unicode="&#xe95f;" glyph-name="dollor-o" d="M693.333 414.814c-42.709 54.059-113.408 69.547-175.829 83.243-83.285 18.261-120.277 30.891-125.141 74.581-2.133 21.547 2.901 38.741 15.36 52.565 20.181 22.272 60.672 36.139 105.557 36.139 74.283 0 99.797-41.728 107.349-59.691 9.173-21.76 34.219-31.915 55.851-22.784 21.717 9.131 31.957 34.133 22.827 55.851-23.125 54.997-71.083 92.203-132.651 105.899l0.171 48.555c0.085 29.44-23.723 53.419-53.163 53.504h-0.171c-29.355 0-53.248-23.765-53.333-53.163l-0.171-47.787c-47.616-8.747-88.32-29.184-115.541-59.307-28.757-31.744-41.515-72.661-36.949-118.699 12.075-109.611 111.701-131.456 191.744-148.992 53.12-11.691 103.339-22.699 127.147-52.821 22.741-28.8 11.989-65.792-8.747-89.728-21.547-24.875-57.643-37.504-107.264-37.504-89.941 0-127.275 61.781-127.275 94.805 0 23.595-19.072 42.667-42.667 42.667-23.552 0-42.667-19.072-42.667-42.667 0-74.923 61.013-154.709 162.347-175.019l0.043-47.829c0-29.44 23.893-53.291 53.333-53.291h0.043c29.483 0 53.291 23.893 53.291 53.376l-0.043 47.659c48.341 8.832 87.125 29.355 115.328 61.952 51.755 59.691 56.405 141.312 11.221 198.485z" />
<glyph unicode="&#xe960;" glyph-name="edit-o" d="M762.667 638.31l-40.747-40.747-60.331 60.331 40.704 40.747c16.128 16.128 44.16 16.128 60.373 0 16.64-16.64 16.64-43.691 0-60.331v0zM297.173 172.177l-73.173-12.928 13.099 74.24 364.16 364.075 60.331-60.373-364.416-365.013zM822.997 758.972c-49.963 49.963-131.157 49.877-181.035 0l-474.709-474.667c-6.229-6.187-10.325-14.123-11.819-22.741l-26.027-147.499c-2.389-13.696 2.005-27.733 11.861-37.547 8.064-8.107 18.944-12.501 30.165-12.501 2.432 0 4.949 0.171 7.381 0.64l146.432 25.813c8.619 1.536 16.597 5.675 22.784 11.861l404.096 404.736c0 0.043 0.043 0.043 0.043 0.085l70.827 70.827c49.877 49.877 49.877 131.115 0 180.992v0z" />
<glyph unicode="&#xe961;" glyph-name="eraser-o" d="M869.333 184.478c29.483 0 53.419-23.936 53.419-53.419s-23.936-53.376-53.419-53.376c-29.483 0-53.419 23.893-53.419 53.376s23.936 53.419 53.419 53.419zM630.643 842.978c32.725 0 65.536-12.501 90.496-37.461v0l177.664-177.664c33.323-33.365 33.323-87.381 0-120.704v0l-333.483-333.44h125.013c23.595 0 42.667-19.115 42.667-42.667s-19.072-42.667-42.667-42.667v0h-298.709c-54.571 0-109.184 20.821-150.827 62.464v0l-87.125 87.168c-50.005 49.963-50.005 131.029 0 181.035v0l386.432 386.475c25.003 24.96 57.771 37.461 90.539 37.461zM376.307 521.015l-162.304-162.347c-16.683-16.64-16.683-43.691 0-60.331v0l87.125-87.168c24.149-24.149 56.32-37.461 90.496-37.461 34.219 0 66.347 13.312 90.539 37.461v0l101.973 102.016-207.829 207.829zM630.643 757.645c-6.613 0-19.328-1.621-30.165-12.501v0l-163.84-163.797 207.829-207.829 194.005 193.963-177.664 177.664c-10.88 10.88-23.552 12.501-30.165 12.501z" />
<glyph unicode="&#xe962;" glyph-name="favourite-o" d="M343.040 746.667c-95.488 0-173.227-77.696-173.269-173.269-0.043-208.043 263.936-389.888 341.333-438.784 77.44 48.896 341.419 230.741 341.333 438.784 0 95.573-77.696 173.269-173.184 173.269-52.608 0-101.76-23.595-134.912-64.683-16.171-20.096-50.261-20.096-66.432 0-33.152 41.088-82.304 64.683-134.869 64.683zM511.104 42.027c-7.211 0-14.507 1.835-21.035 5.547-16.555 9.387-405.675 233.557-405.632 525.867 0.043 142.592 116.053 258.56 258.603 258.56 62.421 0 121.643-22.229 168.064-62.165 46.507 39.936 105.685 62.165 168.149 62.165 142.549 0 258.517-116.011 258.517-258.56 0.085-292.309-389.035-516.48-405.589-525.867-6.528-3.712-13.824-5.547-21.077-5.547z" />
<glyph unicode="&#xe963;" glyph-name="filter-o" d="M554.581 277.436c23.637 0 42.752-19.157 42.752-42.709 0-23.637-19.115-42.752-42.752-42.752v0h-85.163c-23.637 0-42.752 19.115-42.752 42.752 0 23.552 19.115 42.709 42.752 42.709v0zM341.461 490.769v-0.085l383.787 0.085c23.637 0 42.752-19.157 42.752-42.709 0-21.949-16.482-39.998-37.761-42.465l-4.991-0.287h-426.496c-23.637 0-42.752 19.115-42.752 42.752 0 21.87 16.482 39.95 37.761 42.421l4.991 0.288h42.709zM213.461 704.085v-0.085l639.787 0.085c23.637 0 42.752-19.115 42.752-42.709 0-21.909-16.482-39.993-37.761-42.464l-4.991-0.288h-682.496c-23.637 0-42.752 19.157-42.752 42.752 0 21.909 16.482 39.956 37.761 42.422l4.991 0.287h42.709z" />
<glyph unicode="&#xe964;" glyph-name="flag-o" d="M767.415 384c0-11.776-9.557-21.333-21.333-21.333h-104.832c-10.155 0-18.901 7.168-20.907 17.152l-10.24 51.029c-1.963 9.984-10.709 17.152-20.907 17.152h-291.413l-0.043 234.667c0 11.776 9.557 21.333 21.333 21.333h207.531l13.696-68.224c2.005-9.941 10.795-17.109 20.907-17.109h184.875c11.776 0 21.333-9.557 21.333-21.333v-213.333zM767.415 704h-153.771l-6.741 33.749c-5.973 29.995-32.341 51.584-62.891 51.584h-246.229c-47.104 0-85.333-38.229-85.333-85.333v-597.333c0-23.552 19.072-42.667 42.667-42.667s42.667 19.115 42.667 42.667v256h238.933l6.784-33.877c6.016-29.952 32.256-51.456 62.763-51.456h161.152c47.104 0 85.333 38.229 85.333 85.333v256c0 47.104-38.229 85.333-85.333 85.333v0z" />
<glyph unicode="&#xe965;" glyph-name="flag-wave-o" d="M745.779 362.667c11.776 0 21.333 9.557 21.333 21.333v0 213.333c0 11.776-9.557 21.333-21.333 21.333v0h-101.248c-10.581 0-19.584 7.765-21.12 18.219v0l-9.899 67.115h-294.353c-11.776 0-21.333-9.557-21.333-21.333v0-213.333c0-11.776 9.557-21.333 21.333-21.333v0h183.040c10.155 0 18.901-7.168 20.907-17.152v0l13.653-68.181zM297.826 362.667v-256c0-23.552-19.072-42.667-42.667-42.667s-42.667 19.115-42.667 42.667v0 256h-0.043v85.333h0.043v256h-0.043v42.667c0 23.552 19.115 42.667 42.667 42.667v0h306.389c20.309 0 37.803-14.336 41.813-34.304v0l10.197-51.029h196.262c23.595 0 42.667-19.115 42.667-42.667v0-341.333c0-23.552-19.072-42.667-42.667-42.667v0h-221.269c-20.437 0-37.973 14.464-41.899 34.517v0l-9.856 50.816h-238.929z" />
<glyph unicode="&#xe966;" glyph-name="full-screen-o" d="M256 362.667c21.909 0 39.919-16.482 42.38-37.693l0.287-4.974v-85.333h85.333c23.595 0 42.667-19.115 42.667-42.667 0-21.87-16.445-39.913-37.685-42.379l-4.981-0.287h-128c-21.909 0-39.919 16.482-42.38 37.693l-0.287 4.974v128c0 23.552 19.072 42.667 42.667 42.667zM768 362.667c23.595 0 42.667-19.115 42.667-42.667v0-128c0-23.552-19.072-42.667-42.667-42.667v0h-128c-23.595 0-42.667 19.115-42.667 42.667s19.072 42.667 42.667 42.667v0h85.333v85.333c0 23.552 19.072 42.667 42.667 42.667zM384 746.667c23.595 0 42.667-19.115 42.667-42.667 0-21.87-16.445-39.913-37.685-42.379l-4.981-0.287h-85.333v-85.333c0-23.552-19.072-42.667-42.667-42.667-21.909 0-39.919 16.482-42.38 37.693l-0.287 4.974v128c0 21.87 16.445 39.913 37.685 42.379l4.981 0.287h128zM768 746.667c21.909 0 39.919-16.482 42.38-37.693l0.287-4.974v-128c0-23.552-19.072-42.667-42.667-42.667-21.909 0-39.919 16.482-42.38 37.693l-0.287 4.974v85.333h-85.333c-23.595 0-42.667 19.115-42.667 42.667 0 21.87 16.445 39.913 37.685 42.379l4.981 0.287h128z" />
<glyph unicode="&#xe967;" glyph-name="funnel-o" d="M768 832h-512c-47.104 0-85.333-38.229-85.333-85.333v-42.709c0-18.816 6.229-37.163 17.749-52.053l177.792-230.4c11.563-14.933 17.792-33.237 17.792-52.139v-259.2c0-26.197 10.155-52.224 30.379-68.907 16.384-13.483 35.84-19.925 54.955-19.925 22.229 0 43.989 8.661 60.331 25.003l85.333 85.333c16 16 25.003 37.717 25.003 60.331v177.365c0 18.901 6.229 37.205 17.792 52.139l177.749 230.357c11.563 14.933 17.792 33.28 17.792 52.139v42.667c0 47.104-38.229 85.333-85.333 85.333zM768 746.667v-37.931c0-3.072-0.981-6.059-2.859-8.491l-192.683-249.6c-11.563-14.976-17.792-33.28-17.792-52.181v-200.704c0-3.712-1.451-7.211-4.096-9.813l-81.237-81.28v291.797c0 18.901-6.229 37.205-17.792 52.181l-189.739 245.845c-3.755 4.864-5.803 10.837-5.803 16.981v33.195h512z" />
<glyph unicode="&#xe968;" glyph-name="gavel-o" d="M362.876 64.606c23.595 0 42.667-19.115 42.667-42.667s-19.072-42.667-42.667-42.667v0h-320.213c-23.595 0-42.667 19.115-42.667 42.667s19.072 42.667 42.667 42.667v0zM423.215 881.809c16.64 16.64 43.648 16.64 60.331 0v0l271.531-271.573c16.683-16.64 16.683-43.648 0-60.331-8.32-8.32-19.243-12.501-30.165-12.501s-21.845 4.181-30.165 12.501v0l-10.667 10.667-77.611-77.611 286.123-267.861c44.203-46.805 43.136-116.181-0.512-159.787-22.229-22.229-51.157-33.365-80.128-33.365-27.776 0-55.637 10.283-77.611 30.933v0l-269.397 288.597-82.56-82.603 10.667-10.667c16.64-16.683 16.64-43.648 0-60.331-8.363-8.32-19.243-12.501-30.165-12.501s-21.845 4.181-30.165 12.501v0l-230.912 230.912c0 0-0.043 0-0.043 0.043v0l-40.619 40.576c-16.64 16.683-16.64 43.691 0 60.331 16.683 16.683 43.691 16.683 60.373 0v0l10.453-10.453 301.696 301.696-10.453 10.496c-16.683 16.64-16.683 43.648 0 60.331zM546.095 422.588l-20.779-20.736 269.44-288.768c9.045-8.405 26.197-8.192 36.992 2.603v0l2.922 3.405c7.817 10.717 7.083 25.612-2.325 35.635v0l-286.251 267.861zM493.999 750.652l-301.696-301.696 129.749-129.749 113.749 113.749c0 0.043 0.043 0.043 0.043 0.043v0l187.904 187.904-129.749 129.749z" />
<glyph unicode="&#xe969;" glyph-name="history-o" d="M512 832c211.755 0 384-172.245 384-384 0-211.712-172.245-384-384-384s-384 172.288-384 384c0 211.755 172.245 384 384 384zM512 746.667c-164.949 0-298.667-133.717-298.667-298.667s133.717-298.667 298.667-298.667c164.949 0 298.667 133.717 298.667 298.667s-133.717 298.667-298.667 298.667zM499.499 640.239c23.595 0 42.667-19.115 42.667-42.667v0-148.907l105.003-76.245c11.477-8.32 17.579-21.376 17.579-34.56 0-8.704-2.645-17.451-8.107-25.003-8.405-11.52-21.376-17.621-34.603-17.621-8.661 0-17.451 2.645-25.045 8.149v0l-122.581 89.003c-0.768 0.597-1.067 1.536-1.835 2.133-3.499 2.944-6.272 6.443-8.747 10.368-0.853 1.451-2.091 2.603-2.773 4.139-2.56 5.504-4.224 11.435-4.224 17.877v0 170.667c0 23.552 19.072 42.667 42.667 42.667z" />
<glyph unicode="&#xe96a;" glyph-name="info-o" d="M512 832c211.755 0 384-172.245 384-384 0-211.712-172.245-384-384-384s-384 172.288-384 384c0 211.755 172.245 384 384 384zM512 746.667c-164.949 0-298.667-133.717-298.667-298.667s133.717-298.667 298.667-298.667c164.949 0 298.667 133.717 298.667 298.667s-133.717 298.667-298.667 298.667zM512 490.667c21.909 0 39.919-16.482 42.38-37.693l0.287-4.974v-170.667c0-23.552-19.072-42.667-42.667-42.667-21.909 0-39.919 16.482-42.38 37.693l-0.287 4.974v170.667c0 23.552 19.072 42.667 42.667 42.667zM512 672c29.44 0 53.333-23.893 53.333-53.333s-23.893-53.333-53.333-53.333c-29.44 0-53.333 23.893-53.333 53.333s23.893 53.333 53.333 53.333z" />
<glyph unicode="&#xe96b;" glyph-name="ladder-group-o" d="M601.033 834.82c7.467 22.315 31.445 34.475 53.973 26.965 22.315-7.467 34.389-31.616 26.965-53.973v0l-256-768c-5.973-17.877-22.613-29.184-40.491-29.184-4.437 0-9.003 0.725-13.483 2.219-22.315 7.424-34.432 31.616-26.965 53.973v0l41.984 125.867h-251.435l-50.944-152.875c-5.973-17.877-22.613-29.184-40.491-29.184-4.437 0-9.003 0.725-13.483 2.219-22.315 7.424-34.432 31.616-26.965 53.973v0l256 768c7.424 22.315 31.403 34.475 53.973 26.965 22.315-7.467 34.389-31.616 26.965-53.973v0l-34.389-103.125h251.435zM899.695 834.825c7.467 22.315 31.445 34.475 53.973 26.965 22.315-7.467 34.432-31.616 26.965-53.973v0l-256-768c-5.973-17.877-22.571-29.184-40.448-29.184-4.48 0-9.003 0.683-13.525 2.219-22.315 7.424-34.389 31.616-26.965 53.973v0l41.984 125.867h-93.824c-14.549 0-24.875 14.251-20.224 28.075v0l14.208 42.667c2.901 8.704 11.051 14.592 20.267 14.592v0h108.032l42.667 128h-93.824c-14.549 0-24.875 14.251-20.267 28.075v0l14.251 42.667c2.859 8.704 11.051 14.592 20.224 14.592v0h108.032l42.667 128h-93.781c-14.592 0-24.875 14.251-20.267 28.075v0l14.208 42.667c2.901 8.704 11.093 14.592 20.267 14.592v0h108.032zM458.142 406.020h-251.435l-42.667-128h251.435l42.667 128zM529.225 619.354h-251.435l-42.667-128h251.435l42.667 128z" />
<glyph unicode="&#xe96c;" glyph-name="ladder-o" d="M334.707 278.020l42.667 128h251.392l-42.667-128h-251.392zM699.891 619.354l-42.667-128h-251.392l42.667 128h251.392zM825.673 861.786c-22.443 7.509-46.549-4.651-54.016-26.965l-43.307-130.133h-251.435l34.432 103.125c7.381 22.357-4.693 46.507-27.008 53.973-22.443 7.509-46.549-4.651-54.016-26.965l-256-768c-7.424-22.357 4.693-46.549 27.008-53.973 4.48-1.493 9.045-2.219 13.483-2.219 17.877 0 34.517 11.307 40.533 29.184l50.901 152.875h251.435l-42.027-125.867c-7.424-22.357 4.693-46.549 27.008-53.973 4.48-1.493 9.045-2.219 13.483-2.219 17.877 0 34.517 11.307 40.533 29.184l256 768c7.381 22.357-4.693 46.507-27.008 53.973v0z" />
<glyph unicode="&#xe96d;" glyph-name="lamp-o" d="M269.057 320l126.349 469.333h233.191l126.349-469.333h-485.889zM851.842 288.427l-149.314 554.667c-4.994 18.603-21.898 31.573-41.234 31.573h-298.628c-19.294 0-36.197-12.971-41.191-31.573l-149.357-554.667c-3.458-12.843-0.726-26.496 7.342-37.035 8.11-10.539 20.617-16.725 33.892-16.725h255.942v-128h-128.056c-23.562 0-42.685-19.115-42.685-42.667s19.123-42.667 42.685-42.667h341.484c23.605 0 42.685 19.115 42.685 42.667s-19.080 42.667-42.685 42.667h-128.056v128h255.985c13.275 0 25.782 6.187 33.85 16.725 8.11 10.539 10.799 24.192 7.342 37.035v0z" />
<glyph unicode="&#xe96e;" glyph-name="lock-o" d="M571.904 874.671c84.608 0 153.429-68.821 153.429-153.429v0-102.571c70.656 0 128-57.344 128-127.787v0-341.76c0-70.443-57.344-127.787-127.787-127.787v0h-427.093c-70.443 0-127.787 57.344-127.787 127.787v0 341.76c0 70.443 57.344 127.787 127.787 127.787v0h0.213v102.571c0 84.608 68.821 153.429 153.429 153.429v0zM725.547 533.338h-427.093c-23.424 0-42.453-19.029-42.453-42.453v0-341.76c0-23.424 19.029-42.453 42.453-42.453v0h427.093c23.424 0 42.453 19.029 42.453 42.453v0 341.76c0 23.424-19.029 42.453-42.453 42.453v0zM512 405.333c47.104 0 85.333-38.229 85.333-85.333s-38.229-85.333-85.333-85.333c-47.104 0-85.333 38.229-85.333 85.333s38.229 85.333 85.333 85.333zM571.904 789.338h-119.808c-37.547 0-68.096-30.549-68.096-68.096v0-102.571h256v102.571c0 37.547-30.549 68.096-68.096 68.096v0z" />
<glyph unicode="&#xe96f;" glyph-name="mail-o" d="M808.209 192h-592.427c-24.875 0-45.099 20.267-45.099 45.141v411.819l312.32-289.195c8.192-7.552 18.56-11.349 29.013-11.349 10.411 0 20.779 3.797 28.971 11.349l312.363 289.195v-411.819c0-24.875-20.267-45.141-45.141-45.141v0zM787.132 704l-275.115-254.763-275.157 254.763h550.272zM808.209 789.333h-592.427c-71.893 0-130.432-58.539-130.432-130.475v-421.717c0-71.936 58.539-130.475 130.432-130.475h592.427c71.936 0 130.475 58.539 130.475 130.475v421.717c0 71.936-58.539 130.475-130.475 130.475v0z" />
<glyph unicode="&#xe970;" glyph-name="mic-o" d="M768 531.814c23.595 0 42.667-19.115 42.667-42.667 0-150.187-111.488-274.432-256-295.253v0-87.211c0-23.595-19.072-42.667-42.667-42.667s-42.667 19.072-42.667 42.667v0 87.211c-144.512 20.821-256 145.067-256 295.253 0 23.552 19.072 42.667 42.667 42.667s42.667-19.115 42.667-42.667c0-117.632 95.701-213.333 213.333-213.333s213.333 95.701 213.333 213.333c0 23.552 19.072 42.667 42.667 42.667zM512.499 873.186c70.571 0 128-57.429 128-128v0-256c0-70.571-57.429-128-128-128s-128 57.429-128 128v0 256c0 70.571 57.429 128 128 128zM512.499 787.853c-23.552 0-42.667-19.157-42.667-42.667v0-256c0-23.509 19.115-42.667 42.667-42.667s42.667 19.157 42.667 42.667v0 256c0 23.509-19.115 42.667-42.667 42.667z" />
<glyph unicode="&#xe971;" glyph-name="mobile-friendly-o" d="M339.537 917.333h341.461c68.050 0 123.881-53.4 127.782-120.491l0.218-7.509v-682.667c0-68.050-53.4-123.881-120.491-127.782l-7.509-0.218h-341.461c-68.050 0-123.881 53.4-127.782 120.491l-0.218 7.509v85.205h-0.085v42.752c0 23.595 19.115 42.709 42.709 42.709 21.949 0 39.998-16.482 42.465-37.727l0.287-4.982v-42.752h-0.043v-85.205c0-21.83 16.482-39.908 37.693-42.379l4.974-0.288h341.461c21.87 0 39.913 16.518 42.379 37.701l0.287 4.966v682.667c0 21.83-16.482 39.908-37.693 42.379l-4.974 0.288h-341.461c-21.87 0-39.913-16.518-42.379-37.701l-0.287-4.966v-85.205h0.043v-42.752c0-23.595-19.115-42.709-42.752-42.709-21.909 0-39.956 16.482-42.422 37.727l-0.287 4.982v42.752h0.085v85.205c0 68.050 53.4 123.881 120.491 127.782l7.509 0.218h341.461zM511.125 256c35.371 0 64-28.629 64-64s-28.629-64-64-64c-35.328 0-64 28.629-64 64s28.672 64 64 64zM436.71 648.832c16.683 16.683 43.648 16.683 60.331 0s16.683-43.648 0-60.331v0l-213.333-213.333c-7.979-8.021-18.816-12.501-30.165-12.501s-22.187 4.48-30.165 12.501v0l-107.392 107.392c-16.64 16.683-16.64 43.691 0 60.331 16.683 16.683 43.691 16.683 60.331 0v0l77.227-77.227z" />
<glyph unicode="&#xe972;" glyph-name="mobile-o" d="M682.624 917.333c70.699 0 128.043-57.344 128.043-128.043v-682.624c0-70.699-57.344-128-128-128h-341.333c-70.699 0-128 57.301-128 128v682.667c0 70.699 57.344 128 128 128h341.291zM682.624 832h-341.291c-23.595 0-42.667-19.115-42.667-42.667v-682.667c0-23.552 19.072-42.667 42.667-42.667h341.291c23.595 0 42.709 19.115 42.709 42.709v682.581c0 23.595-19.115 42.709-42.709 42.709zM512 256c35.328 0 64-28.629 64-64s-28.672-64-64-64c-35.328 0-64 28.629-64 64s28.672 64 64 64z" />
<glyph unicode="&#xe973;" glyph-name="more-horizontal-o" d="M512 533.333c47.104 0 85.333-38.229 85.333-85.333s-38.229-85.333-85.333-85.333c-47.104 0-85.333 38.229-85.333 85.333s38.229 85.333 85.333 85.333zM256 533.333c47.104 0 85.333-38.229 85.333-85.333s-38.229-85.333-85.333-85.333c-47.104 0-85.333 38.229-85.333 85.333s38.229 85.333 85.333 85.333zM768 533.333c47.104 0 85.333-38.229 85.333-85.333s-38.229-85.333-85.333-85.333c-47.104 0-85.333 38.229-85.333 85.333s38.229 85.333 85.333 85.333z" />
<glyph unicode="&#xe974;" glyph-name="more-vertical-o" d="M512 277.333c47.104 0 85.333-38.229 85.333-85.333s-38.229-85.333-85.333-85.333c-47.104 0-85.333 38.229-85.333 85.333s38.229 85.333 85.333 85.333zM512 533.333c47.104 0 85.333-38.229 85.333-85.333s-38.229-85.333-85.333-85.333c-47.104 0-85.333 38.229-85.333 85.333s38.229 85.333 85.333 85.333zM512 789.333c47.104 0 85.333-38.229 85.333-85.333s-38.229-85.333-85.333-85.333c-47.104 0-85.333 38.229-85.333 85.333s38.229 85.333 85.333 85.333z" />
<glyph unicode="&#xe975;" glyph-name="my-location-o" d="M512 919.061c23.595 0 42.667-19.115 42.667-42.667v0-45.184c177.707-19.755 319.104-161.152 338.816-338.816v0h45.184c23.595 0 42.667-19.115 42.667-42.667s-19.072-42.667-42.667-42.667v0h-45.184c-19.712-177.664-161.109-319.061-338.816-338.816v0-45.184c0-23.552-19.072-42.667-42.667-42.667s-42.667 19.115-42.667 42.667v0 45.184c-177.707 19.755-319.104 161.152-338.816 338.816v0h-45.184c-23.595 0-42.667 19.115-42.667 42.667s19.072 42.667 42.667 42.667v0h45.184c19.712 177.664 161.109 319.061 338.816 338.816v0 45.184c0 23.552 19.072 42.667 42.667 42.667zM512 748.395c-164.651 0-298.667-133.973-298.667-298.667s134.016-298.667 298.667-298.667c164.651 0 298.667 133.973 298.667 298.667s-134.016 298.667-298.667 298.667zM512 620.395c94.251 0 170.667-76.416 170.667-170.667s-76.416-170.667-170.667-170.667c-94.251 0-170.667 76.416-170.667 170.667s76.416 170.667 170.667 170.667z" />
<glyph unicode="&#xe976;" glyph-name="night-mode-o" d="M215.791 278.519c59.477-103.723 171.392-171.861 296.192-171.861 188.245 0 341.333 153.131 341.333 341.333 0 124.843-68.096 236.757-171.861 296.235 14.805-39.936 22.528-82.475 22.528-125.568 0-199.979-162.688-362.667-362.667-362.667-43.093 0-85.589 7.765-125.525 22.528zM511.983 21.325c-203.52 0-379.563 144.896-418.56 344.491-3.456 17.792 4.651 35.797 20.224 45.013 15.616 9.131 35.328 7.509 49.152-4.224 49.92-42.069 113.323-65.28 178.517-65.28 152.917 0 277.333 124.416 277.333 277.333 0 65.195-23.211 128.597-65.28 178.56-11.648 13.824-13.312 33.536-4.181 49.109 9.216 15.616 27.264 23.893 44.971 20.267 199.637-38.997 344.491-215.040 344.491-418.603 0-235.264-191.403-426.667-426.667-426.667z" />
<glyph unicode="&#xe977;" glyph-name="note-o" d="M853.333 832.009c23.595 0 42.667-19.115 42.667-42.667v0-612.011c0-47.787-20.523-92.288-56.277-122.027-23.381-19.456-51.797-30.379-81.323-32.853-1.835-0.256-3.499-1.109-5.419-1.109v0h-508.587c-87.723 0-159.061 66.987-159.061 149.291v0 64.043c0 23.552 19.072 42.667 42.667 42.667v0h128v512c0 23.552 19.072 42.667 42.667 42.667v0zM597.333 192.009h-426.667v-21.376c0-35.243 33.067-63.957 73.728-63.957v0h368.299c-2.517 5.205-3.755 10.581-5.632 15.872-0.299 0.811-0.597 1.579-0.853 2.389-2.816 8.405-5.035 16.512-6.315 24.704-0.213 1.109-0.256 2.261-0.427 3.371-0.811 5.931-2.133 12.032-2.133 17.621v0 21.376zM810.667 746.675h-469.333v-469.333h298.667c23.595 0 42.667-19.115 42.667-42.667v0-56.235c0-25.984 12.629-49.408 31.445-61.952v0l0.64-0.427c4.651-3.029 10.027-4.651 15.403-6.272 5.931-1.579 12.459-2.603 19.84-2.816 12.715 0.768 24.875 5.419 35.072 13.909 16.256 13.525 25.6 34.091 25.6 56.448v0 569.344zM447.791 490.667h129.451c23.595 0 42.667-19.115 42.667-42.667 0-21.87-16.445-39.913-37.685-42.379l-4.981-0.287h-129.451c-23.595 0-42.667 19.115-42.667 42.667 0 21.87 16.445 39.913 37.685 42.379l4.981 0.287h129.451zM447.791 661.521h256.427c23.552 0 42.667-19.115 42.667-42.667 0-21.87-16.482-39.913-37.693-42.379l-4.974-0.287h-256.427c-23.595 0-42.667 19.115-42.667 42.667 0 21.87 16.445 39.913 37.685 42.379l4.981 0.287h256.427z" />
<glyph unicode="&#xe978;" glyph-name="paperclip-thick-o" d="M789.167 627.853h0.128v42.709c0 23.637-19.115 42.752-42.752 42.752-23.595 0-42.709-19.115-42.709-42.752v-42.709l0.043-345.771c-3.797-96.683-83.627-174.208-181.205-174.208-100.011 0-181.333 81.365-181.333 181.333v394.581c0 57.515 47.829 104.32 106.624 104.32 56.576 0 102.997-43.264 106.453-97.749v-400.597c0-18.091-14.336-32.768-31.915-32.768-17.621 0-31.957 14.677-31.957 32.768v338.091h0.043v42.709c0 23.637-19.115 42.752-42.752 42.752-23.595 0-42.709-19.115-42.709-42.752v-42.709h0.085v-338.091c0-65.109 52.608-118.101 117.291-118.101s117.248 52.992 117.248 118.101l0.213 394.027c0 104.576-86.144 189.653-192 189.653s-191.957-85.077-191.957-189.653v-394.581c0-147.029 119.637-266.667 266.667-266.667s266.667 119.637 266.667 266.667l-0.171 338.645z" />
<glyph unicode="&#xe979;" glyph-name="paperclip-thin-o" d="M778.5 649.207h0.085v32.043c0 17.707-14.336 32.043-32.043 32.043-17.664 0-32-14.293-32.043-32v-392.107l0.043-7.083c-3.755-102.571-88.363-184.875-191.872-184.875-105.899 0-192 86.144-192 191.957v394.624c0 63.36 52.608 114.944 117.291 114.944 62.336 0 113.451-47.872 117.12-108.075v-400.896c0-23.979-19.072-43.477-42.581-43.477s-42.624 19.499-42.624 43.477v359.424h0.043v32.043c0 17.707-14.379 32.043-32.085 32.043-17.664 0-32.043-14.336-32.043-32.043v-32.043h0.085v-359.424c0-59.264 47.829-107.477 106.624-107.477 58.752 0 106.581 48.213 106.581 107.477l0.213 394.027c0 98.688-81.323 178.944-181.333 178.944-99.968 0-181.291-80.256-181.291-178.944v-394.624c0-141.141 114.816-255.957 256-255.957 141.141 0 256 114.816 256 255.957l-0.171 360.021z" />
<glyph unicode="&#xe97a;" glyph-name="payment-o" d="M820.309 789.333c65.28 0 118.357-53.12 118.357-118.4v0-445.909c0-65.28-53.077-118.357-118.357-118.357v0h-616.619c-65.28 0-118.357 53.077-118.357 118.357v0 445.909c0 65.28 53.077 118.4 118.357 118.4v0zM853.333 448h-682.667v-222.976c0-18.219 14.848-33.024 33.024-33.024v0h616.619c18.176 0 33.024 14.805 33.024 33.024v0 222.976zM764.075 325.478c23.595 0 42.667-19.115 42.667-42.667s-19.072-42.667-42.667-42.667v0h-173.781c-23.595 0-42.667 19.115-42.667 42.667s19.072 42.667 42.667 42.667v0zM820.309 704h-616.619c-18.176 0-33.024-14.848-33.024-33.067v0-52.267h682.667v52.267c0 18.219-14.848 33.067-33.024 33.067v0z" />
<glyph unicode="&#xe97b;" glyph-name="person-o" d="M640 405.333c117.632 0 213.333-95.701 213.333-213.333 0-70.571-57.429-128-128-128v0h-426.667c-70.571 0-128 57.429-128 128 0 117.632 95.701 213.333 213.333 213.333v0zM640 320h-256c-70.571 0-128-57.429-128-128 0-23.509 19.115-42.667 42.667-42.667v0h426.667c23.552 0 42.667 19.157 42.667 42.667 0 70.571-57.429 128-128 128v0zM512 832c94.123 0 170.667-76.544 170.667-170.667s-76.544-170.667-170.667-170.667c-94.123 0-170.667 76.544-170.667 170.667s76.544 170.667 170.667 170.667zM512 746.667c-47.061 0-85.333-38.272-85.333-85.333s38.272-85.333 85.333-85.333c47.061 0 85.333 38.272 85.333 85.333s-38.272 85.333-85.333 85.333z" />
<glyph unicode="&#xe97c;" glyph-name="phone-o" d="M296.802 748.066c-5.589 0-12.331-6.315-13.909-7.936l-37.077-37.035c-31.189-31.232-41.003-78.208-24.875-119.637 75.52-194.731 230.4-349.995 424.96-425.941 41.557-16.213 88.619-6.485 119.808 24.789l37.461 37.461c4.821 4.821 7.851 9.984 8.021 13.867 0.085 1.28-0.085 2.688-1.835 4.437l-98.304 98.347c-3.328 3.328-8.747 3.328-12.075 0l-59.52-59.52c-19.541-19.499-49.621-23.253-73.216-9.131-96.725 58.069-178.219 139.435-235.563 235.264-14.080 23.509-10.368 53.547 9.003 73.088l59.819 59.819c3.285 3.328 3.285 8.747-0.043 12.075l-98.347 98.304c-1.237 1.28-2.731 1.749-4.309 1.749v0zM686.903 64.461c-24.192 0-48.597 4.437-71.979 13.568-216.832 84.608-389.419 257.579-473.557 474.539-28.331 72.96-11.008 155.733 44.117 210.859l37.077 37.035c41.301 41.301 101.035 44.032 138.88 6.229l98.389-98.389c36.523-36.608 36.523-96.128 0.043-132.736l-45.525-45.483c45.867-71.083 107.179-132.309 178.944-178.645l45.312 45.312c35.456 35.456 97.365 35.456 132.779 0l98.304-98.347c18.688-18.645 28.16-43.307 26.709-69.461-1.365-25.344-12.757-49.365-32.896-69.504l-37.461-37.461c-37.504-37.504-87.851-57.515-139.136-57.515v0z" />
</font>
</defs>
</svg>
